<svg xmlns="http://www.w3.org/2000/svg" width="47.27" height="103.91"><text transform="matrix(.96 0 0 1 2.81 67.45)" font-size="10.67" font-family="Arial Narrow, Arial" letter-spacing=".03em">А<tspan x="7.47" y="0" letter-spacing="0em">Д</tspan></text><path d="M1.1 46a9.44 9.44 0 1 1 9.44 9.44A9.44 9.44 0 0 1 1.1 46z" fill="none" stroke="#000" stroke-linecap="round" stroke-linejoin="round" stroke-width="1.7"/><path d="M3.93 46a6.61 6.61 0 1 1 6.61 6.61A6.61 6.61 0 0 1 3.93 46z" fill="none" stroke="#000" stroke-linecap="round" stroke-linejoin="round" stroke-width="1.7"/><text transform="matrix(.96 0 0 1 17.56 100.45)" font-size="10.67" font-family="Arial Narrow, Arial">ЛН</text><path d="M14.3 79.51A9.44 9.44 0 1 1 23.74 89a9.44 9.44 0 0 1-9.44-9.44zM17.06 86.19l13.35-13.36M30.41 86.19L17.06 72.83M27.49 36.59h18.88v18.88H27.49z" fill="none" stroke="#000" stroke-linecap="round" stroke-linejoin="round" stroke-width="1.7"/><path fill="none" stroke="#000" stroke-linecap="round" stroke-linejoin="round" stroke-width="1.7" d="M36.93 50.4l-5.04-8.74h10.09l-5.05 8.74zM36.93 53.02V39.04M31.89 50.4h10.09"/><text transform="matrix(.96 0 0 1 33.56 67.45)" font-size="10.67" font-family="Arial Narrow, Arial">П</text><circle cx="37" cy="20.74" r="3"/><circle cx="23.81" cy="20.74" r="3"/><circle cx="10.62" cy="20.74" r="3"/><path d="M37.93 0h-2v36.59h2zM24.93 20.89h-2v49.18h2zM11.62 20.89h-2v15.7h2z"/><path d="M0 19.92v2h47.27v-2z"/></svg>