<svg xmlns="http://www.w3.org/2000/svg" width="47.27" height="103.91"><path fill="none" stroke="#000" stroke-linecap="round" stroke-linejoin="round" stroke-width="1.7" d="M27.46 36.59h18.82M46.28 36.59V55.4M46.28 55.4H27.46M27.46 55.4V36.59M29.46 45.99h3.53M40.75 45.99h3.53M42.33 44.58a5.64 5.64 0 0 0-10.93 0M31.41 47.41a5.64 5.64 0 0 0 10.93 0"/><text transform="matrix(.96 0 0 1 30.81 67.45)" font-size="10.67" font-family="Arial Narrow, Arial">ЭУ</text><text transform="matrix(.96 0 0 1 2.81 67.45)" font-size="10.67" font-family="Arial Narrow, Arial" letter-spacing=".03em">А<tspan x="7.47" y="0" letter-spacing="0em">Д</tspan></text><path d="M1.1 46a9.44 9.44 0 1 1 9.44 9.44A9.44 9.44 0 0 1 1.1 46z" fill="none" stroke="#000" stroke-linecap="round" stroke-linejoin="round" stroke-width="1.7"/><path d="M3.93 46a6.61 6.61 0 1 1 6.61 6.61A6.61 6.61 0 0 1 3.93 46z" fill="none" stroke="#000" stroke-linecap="round" stroke-linejoin="round" stroke-width="1.7"/><text transform="matrix(.96 0 0 1 17.56 100.45)" font-size="10.67" font-family="Arial Narrow, Arial">ЛН</text><path d="M14.3 79.51A9.44 9.44 0 1 1 23.74 89a9.44 9.44 0 0 1-9.44-9.44zM17.06 86.19l13.35-13.36M30.41 86.19L17.06 72.83" fill="none" stroke="#000" stroke-linecap="round" stroke-linejoin="round" stroke-width="1.7"/><circle cx="37" cy="20.74" r="3"/><circle cx="23.81" cy="20.74" r="3"/><circle cx="10.62" cy="20.74" r="3"/><path d="M37.93 0h-2v36.59h2zM24.93 20.89h-2v49.18h2zM11.62 20.89h-2v15.7h2z"/><path d="M0 19.92v2h47.27v-2z"/></svg>