<svg xmlns="http://www.w3.org/2000/svg" width="47.27" height="82.95"><text transform="matrix(.96 0 0 1 2.81 79.48)" font-size="10.67" font-family="Arial Narrow, Arial" letter-spacing=".03em">А<tspan x="7.47" y="0" letter-spacing="0em">Д</tspan></text><path d="M1.1 58a9.44 9.44 0 1 1 9.44 9.44A9.44 9.44 0 0 1 1.1 58z" fill="none" stroke="#000" stroke-linecap="round" stroke-linejoin="round" stroke-width="1.7"/><path d="M3.93 58a6.61 6.61 0 1 1 6.61 6.61A6.61 6.61 0 0 1 3.93 58zM27.49 48.59h18.88v18.88H27.49z" fill="none" stroke="#000" stroke-linecap="round" stroke-linejoin="round" stroke-width="1.7"/><path fill="none" stroke="#000" stroke-linecap="round" stroke-linejoin="round" stroke-width="1.7" d="M36.93 62.4l-5.04-8.74h10.09l-5.05 8.74zM36.93 65.02V51.04M31.89 62.4h10.09"/><text transform="matrix(.96 0 0 1 33.56 79.45)" font-size="10.67" font-family="Arial Narrow, Arial">П</text><circle cx="37" cy="20.74" r="3"/><circle cx="10.62" cy="20.74" r="3"/><path d="M37.93 0h-2v48.59h2zM11.62 20.89h-2v27.66h2z"/><path d="M0 19.92v2h47.27v-2z"/></svg>