<svg xmlns="http://www.w3.org/2000/svg" width="150" height="97.37"><path d="M0 93.34h65v1.5H0z"/><path d="M65 93.34H0v1.5h65v-1.5z"/><path d="M38 52.31h-2v42.03h2V52.31zM38 0h-2v35.3h2V0z"/><circle cx="37" cy="94.34" r="2.39"/><path d="M37 92.59a1.78 1.78 0 1 1-1.78 1.78A1.78 1.78 0 0 1 37 92.59m0-1.22a3 3 0 1 0 3 3 3 3 0 0 0-3-3z"/><path fill="none" stroke="#020202" stroke-linecap="round" stroke-linejoin="round" stroke-width="1.8" d="M28.51 37.58l8.5 14.73M30.54 50.16l3.92-2.27M34.46 47.89L31.06 42M31.06 42l-3.93 2.27M27.13 44.27l3.41 5.89"/></svg>