<svg xmlns="http://www.w3.org/2000/svg" width="520.82" height="747.92"><path d="M135.87 648.4h384.45m-385.69 54.15h384.45M135.87 648.4V99.19M56.32 648.4V99.19m71.75 122.05h7.8m-87.35 0h7.8m71.75 61h7.8m-87.35 0h7.8m71.75 61h7.8m-87.35 0h7.8m71.75 61h7.8m-87.35 0h7.8m71.75 61h7.8m-87.35 0h7.8m71.75 61h7.8m-87.35 0h7.8m71.75 61h7.8m-87.35 0h7.8m71.75 61h7.8m-87.35 0h7.8m71.75-488.18h7.8m-87.35 0h7.8M196.89 648.4v6.85m61-6.85v6.85m61-6.85v6.85m61-6.85v6.85m61-6.85v6.85m-244 47.3v6.84m61-6.84v6.84m61-6.84v6.84m61-6.84v6.84m61-6.84v6.84m-305.12-6.84v6.84" fill="none" stroke="#000" stroke-linecap="round" stroke-linejoin="round"/><path d="M367.88 451.88l-9.29-5.21m-58.4-53.53l11 8.73m-156.34-46.81l9.51-.13m22.73 112.71l-10.93 8.72" fill="none" stroke="#000" stroke-linecap="round" stroke-linejoin="round" stroke-width=".5"/><path d="M196.89 648.4V99.19m61 549.21V99.19m61 549.21V99.19m61 549.21V99.19m61 549.21V99.19m0 488.18H135.87m305.12-61H135.87m305.12-61H135.87m305.12-61H135.87m305.12-61H135.87m305.12-61H135.87m305.12-61H135.87m305.12-61H135.87M441 99.19H135.87" fill="none" stroke="#000" stroke-linecap="round" stroke-linejoin="round" stroke-width=".25"/><path d="M135.88 648.4q12-4.27 23.88-8.69c12.44-4.64 25-9.09 37.15-14.33a440.65 440.65 0 0 0 41.33-20 356 356 0 0 0 37.16-23.77 333.66 333.66 0 0 0 37.52-32.28c9.21-9.2 18.67-18.67 26-29.24 9.23-13.24 16-28.57 21.69-43.76 4.47-11.89 7.23-24.47 10.56-36.79 5.09-18.81 9.67-37.77 13.92-56.77 4-17.65 7.37-35.44 10.89-53.2 2.55-12.81 5.17-25.61 7.47-38.48 3.28-18.4 6.12-36.89 8.64-55.4 2.15-15.71 4-31.48 5.65-47.24 1.57-14.57 3.4-29.13 4.24-43.76.57-10 .6-20 .91-30l.48-15.55" fill="none" stroke="#00f" stroke-linecap="round" stroke-linejoin="round" stroke-width="2"/><path d="M135.88 648.4q.57-14.28 2.39-28.39c1.23-9.57 2.85-19.15 5-28.56 1.73-7.71 3.69-15.41 6.16-22.92a251.21 251.21 0 0 1 9.43-24 247.34 247.34 0 0 1 14.28-27.91 204.27 204.27 0 0 1 16.51-23.45c5.83-7.09 12.48-13.55 19-20 7.48-7.45 15.09-14.85 23.19-21.61a331.77 331.77 0 0 1 29.44-21.57c10.67-7.08 21.81-13.64 33.15-19.65a390.84 390.84 0 0 1 36.68-17.16c11.89-4.8 24.12-8.89 36.41-12.57 7.49-2.24 15.05-4.35 22.67-6.16 9.21-2.19 18.53-4.13 27.91-5.51q11.4-1.67 22.93-2.4" fill="none" stroke="#00f" stroke-linecap="round" stroke-linejoin="round" stroke-width="2"/><path d="M135.88 252.48a566 566 0 0 0 22.19 113.51c3.59 11.75 7.43 23.49 11.92 34.93 4.59 11.68 9.77 23.17 15.39 34.39a363.09 363.09 0 0 0 21.33 37.87 299.86 299.86 0 0 0 27 35.05 247.87 247.87 0 0 0 33.84 32 222.67 222.67 0 0 0 38.43 23.25 284.09 284.09 0 0 0 35.63 13.51c21.92 7 45 10.39 67.59 14.93q15.8 3.15 31.72 6.07" fill="none" stroke="#00f" stroke-linecap="round" stroke-linejoin="round" stroke-width="2"/><path d="M135.88 344.14q3.45 15 7.91 29.67a369.5 369.5 0 0 0 16 44.37 348.19 348.19 0 0 0 16.35 31.44 328.15 328.15 0 0 0 26.67 40.24 232.66 232.66 0 0 0 28 30.27c10.67 9.33 22.79 17.08 34.89 24.45a284.91 284.91 0 0 0 40.24 20.89c11.53 4.69 23.68 8 35.68 11.48 22.16 6.33 45 10.39 67.59 14.93q15.79 3.19 31.71 6.11" fill="none" stroke="#00f" stroke-linecap="round" stroke-linejoin="round" stroke-width="2"/><text transform="matrix(.96 0 0 1 320.42 442.42)" font-size="32.32" font-family="Arial Narrow, Arial" style="isolation:isolate">Z</text><text transform="matrix(.96 0 0 1 340.58 442.42)" font-size="18.11" font-family="Arial Narrow, Arial" style="isolation:isolate">0НГ</text><text transform="matrix(.96 0 0 1 273.25 390.76)" font-size="32.32" font-family="Arial Narrow, Arial" style="isolation:isolate">E</text><text transform="matrix(.96 0 0 1 294.61 390.76)" font-size="18.11" font-family="Arial Narrow, Arial" style="isolation:isolate">НГ</text><text transform="matrix(.96 0 0 1 144.55 491.5)" font-size="32.32" font-family="Arial Narrow, Arial" style="isolation:isolate">Z</text><text transform="matrix(.96 0 0 1 162.95 491.5)" font-size="18.11" font-family="Arial Narrow, Arial" style="isolation:isolate">1НГ</text><text transform="matrix(.96 0 0 1 164.44 366.68)" font-size="32.32" font-family="Arial Narrow, Arial" style="isolation:isolate">Z</text><text transform="matrix(.96 0 0 1 184.59 366.68)" font-size="18.11" font-family="Arial Narrow, Arial" style="isolation:isolate">2НГ</text><text transform="matrix(.96 0 0 1 120.01 685.82)" font-size="26" font-family="Arial Narrow, Arial" style="isolation:isolate">0</text><text transform="matrix(.96 0 0 1 178.28 684.79)" font-size="26" font-family="Arial Narrow, Arial" style="isolation:isolate">0,2</text><text transform="matrix(.96 0 0 1 239.31 684.74)" font-size="26" font-family="Arial Narrow, Arial" style="isolation:isolate">0,4</text><text transform="matrix(.96 0 0 1 300.33 684.23)" font-size="26" font-family="Arial Narrow, Arial" style="isolation:isolate">0,6</text><text transform="matrix(.96 0 0 1 361.36 684.23)" font-size="26" font-family="Arial Narrow, Arial" style="isolation:isolate">0,8</text><text transform="matrix(.96 0 0 1 422.32 684.23)" font-size="26" font-family="Arial Narrow, Arial" style="isolation:isolate">1,0</text><text transform="matrix(.96 0 0 1 472.08 678.88)" font-size="32.32" font-family="Arial Narrow, Arial" letter-spacing="-.02em" style="isolation:isolate">P</text><text transform="matrix(.96 0 0 1 489.5 678.88)" font-size="18.11" font-family="Arial Narrow, Arial" style="isolation:isolate">АД</text><text transform="matrix(.96 0 0 1 455.94 630.04)" font-size="32.32" font-family="Arial Narrow, Arial" letter-spacing="-.02em" style="isolation:isolate">P</text><text transform="matrix(.96 0 0 1 472.36 630.74)" font-size="18.11" font-family="Arial Narrow, Arial" style="isolation:isolate">1</text><g style="isolation:isolate" font-size="32.32" font-family="Arial Narrow, Arial"><text transform="matrix(.96 0 0 1 483.29 630.04)" style="isolation:isolate">/</text><text transform="matrix(.96 0 0 1 490.37 630.04)" letter-spacing="-.02em" style="isolation:isolate">P</text></g><text transform="matrix(.96 0 0 1 506.85 632.15)" font-size="18.11" font-family="Arial Narrow, Arial" style="isolation:isolate">Ʃ</text><text transform="matrix(.96 0 0 1 473.32 734.99)" font-size="32.32" font-family="Arial Narrow, Arial" letter-spacing="-.02em" style="isolation:isolate">P</text><text transform="matrix(.96 0 0 1 490.74 734.99)" font-size="18.11" font-family="Arial Narrow, Arial" style="isolation:isolate">ЛН</text><text transform="matrix(.96 0 0 1 118.69 739.95)" font-size="26" font-family="Arial Narrow, Arial" style="isolation:isolate">1,0</text><text transform="matrix(.96 0 0 1 177.04 738.94)" font-size="26" font-family="Arial Narrow, Arial" style="isolation:isolate">0,8</text><text transform="matrix(.96 0 0 1 238.06 738.38)" font-size="26" font-family="Arial Narrow, Arial" style="isolation:isolate">0,6</text><text transform="matrix(.96 0 0 1 299.09 738.88)" font-size="26" font-family="Arial Narrow, Arial" style="isolation:isolate">0,4</text><text transform="matrix(.96 0 0 1 360.12 738.38)" font-size="26" font-family="Arial Narrow, Arial" style="isolation:isolate">0,2</text><text transform="matrix(.96 0 0 1 432.12 738.38)" font-size="26" font-family="Arial Narrow, Arial" style="isolation:isolate">0</text><text transform="matrix(.96 0 0 1 77.87 107.31)" font-size="30" font-family="Arial Narrow, Arial" style="isolation:isolate">Z</text><text transform="matrix(.96 0 0 1 93.25 107.31)" font-size="18.11" font-family="Arial Narrow, Arial" style="isolation:isolate">1НГ</text><text transform="matrix(.96 0 0 1 77.87 139.41)" font-size="30" font-family="Arial Narrow, Arial" style="isolation:isolate">Z</text><text transform="matrix(.96 0 0 1 95.01 139.41)" font-size="18.11" font-family="Arial Narrow, Arial" style="isolation:isolate">2НГ</text><text transform="matrix(.96 0 0 1 77.87 171.51)" font-size="30" font-family="Arial Narrow, Arial" style="isolation:isolate">E</text><text transform="matrix(.96 0 0 1 96.23 171.51)" font-size="18.11" font-family="Arial Narrow, Arial" style="isolation:isolate">НГ</text><text transform="matrix(.96 0 0 1 0 107.31)" font-size="30" font-family="Arial Narrow, Arial" style="isolation:isolate">Z</text><text transform="matrix(.96 0 0 1 17.16 107.31)" font-size="18.11" font-family="Arial Narrow, Arial" style="isolation:isolate">0НГ</text><text transform="matrix(.96 0 0 1 7.12 655.51)" font-size="26" font-family="Arial Narrow, Arial" style="isolation:isolate">1,0</text><text transform="matrix(.96 0 0 1 7.19 595.35)" font-size="26" font-family="Arial Narrow, Arial" style="isolation:isolate">2,0</text><text transform="matrix(.96 0 0 1 7.71 533.46)" font-size="26" font-family="Arial Narrow, Arial" style="isolation:isolate">3,0</text><text transform="matrix(.96 0 0 1 6.95 472.94)" font-size="26" font-family="Arial Narrow, Arial" style="isolation:isolate">4,0</text><text transform="matrix(.96 0 0 1 7.19 411.19)" font-size="26" font-family="Arial Narrow, Arial" style="isolation:isolate">5,0</text><text transform="matrix(.96 0 0 1 7.19 350.94)" font-size="26" font-family="Arial Narrow, Arial" style="isolation:isolate">6,0</text><text transform="matrix(.96 0 0 1 6.95 289.83)" font-size="26" font-family="Arial Narrow, Arial" style="isolation:isolate">7,0</text><text transform="matrix(.96 0 0 1 7.47 228.34)" font-size="26" font-family="Arial Narrow, Arial" style="isolation:isolate">8,0</text><text transform="matrix(.96 0 0 1 7.19 167.59)" font-size="26" font-family="Arial Narrow, Arial" style="isolation:isolate">9,0</text><text transform="matrix(.96 0 0 1 82 594.48)" font-size="26" font-family="Arial Narrow, Arial" style="isolation:isolate">0,2</text><text transform="matrix(.96 0 0 1 82.56 533.96)" font-size="26" font-family="Arial Narrow, Arial" style="isolation:isolate">0,4</text><text transform="matrix(.96 0 0 1 83.67 471.74)" font-size="26" font-family="Arial Narrow, Arial" style="isolation:isolate">1,0</text><text transform="matrix(.96 0 0 1 83.73 410.24)" font-size="26" font-family="Arial Narrow, Arial" style="isolation:isolate">0,8</text><text transform="matrix(.96 0 0 1 83.67 351.23)" font-size="26" font-family="Arial Narrow, Arial" style="isolation:isolate">1,0</text><text transform="matrix(.96 0 0 1 79.87 289.37)" font-size="26" font-family="Arial Narrow, Arial" style="isolation:isolate">1,2</text><text transform="matrix(.96 0 0 1 79.87 226.98)" font-size="26" font-family="Arial Narrow, Arial" style="isolation:isolate">1,4</text><text transform="matrix(.96 0 0 1 208.59 55.46)" font-size="32" font-family="Arial Narrow, Arial" style="isolation:isolate">АД+ЛН</text></svg>