<svg xmlns="http://www.w3.org/2000/svg" width="549.41" height="349.72"><path d="M548.41 1l-63.9 8.88-63.9 12.46a450.8 450.8 0 0 0-63.89 23.08c-21.33 10.67-42.6 21.33-62.12 35.49a305.9 305.9 0 0 0-48 47.92c-16 19.52-26.67 42.6-40.82 62.12s-21.33 46.14-39.05 63.89A197 197 0 0 1 104.65 301a193.46 193.46 0 0 1-63.89 16" fill="none" stroke="#00f" stroke-linecap="round" stroke-linejoin="round" stroke-width="2"/><path d="M40.82 1v316" fill="none" stroke="#000" stroke-linecap="round" stroke-linejoin="round"/><path d="M548.41 316.99V1m0 0H40.82" fill="none" stroke="#000" stroke-linecap="round" stroke-linejoin="round" stroke-width=".25"/><path d="M40.82 316.99h507.59" fill="none" stroke="#000" stroke-linecap="round" stroke-linejoin="round"/><path d="M484.5 316.99V1m-63.89 316V1m-62.12 316V1m-63.86 316V1m-63.88 316V1m-63.89 316V1m-62.12 316V1M40.82 254.8h507.59m-507.6-63.86h507.6M40.82 127.02h507.59M40.82 64.91h507.59" fill="none" stroke="#000" stroke-linecap="round" stroke-linejoin="round" stroke-width=".25"/><text transform="matrix(.93 0 0 1 23.08 341.77)" font-size="23.08" font-family="Arial Narrow, Arial" style="isolation:isolate">0,5</text><text transform="matrix(.93 0 0 1 95.83 341.77)" font-size="23.08" font-family="Arial Narrow, Arial" style="isolation:isolate">1</text><text transform="matrix(.93 0 0 1 159.74 341.77)" font-size="23.08" font-family="Arial Narrow, Arial" style="isolation:isolate">2</text><text transform="matrix(.93 0 0 1 223.63 341.77)" font-size="23.08" font-family="Arial Narrow, Arial" style="isolation:isolate">5</text><text transform="matrix(.93 0 0 1 280.42 341.77)" font-size="23.08" font-family="Arial Narrow, Arial" style="isolation:isolate">10</text><text transform="matrix(.93 0 0 1 346.09 341.77)" font-size="23.08" font-family="Arial Narrow, Arial" style="isolation:isolate">20</text><text transform="matrix(.93 0 0 1 0 258.35)" font-size="23.08" font-family="Arial Narrow, Arial" style="isolation:isolate">1,2</text><text transform="matrix(.93 0 0 1 3.55 322.25)" font-size="23.08" font-family="Arial Narrow, Arial" style="isolation:isolate">1</text><text transform="matrix(.93 0 0 1 0 196.23)" font-size="23.08" font-family="Arial Narrow, Arial" style="isolation:isolate">1,4</text><text transform="matrix(.93 0 0 1 0 132.34)" font-size="23.08" font-family="Arial Narrow, Arial" style="isolation:isolate">1,6</text><text transform="matrix(.93 0 0 1 0 68.45)" font-size="23.08" font-family="Arial Narrow, Arial" style="isolation:isolate">1,8</text><text transform="matrix(.93 0 0 1 409.98 341.77)" font-size="23.08" font-family="Arial Narrow, Arial" style="isolation:isolate">50</text><text transform="matrix(.93 0 0 1 465 341.77)" font-size="23.08" font-family="Arial Narrow, Arial" style="isolation:isolate">100</text><text transform="matrix(.93 0 0 1 0 20.52)" font-size="23.08" font-family="Arial Narrow, Arial" style="isolation:isolate">К</text><text transform="matrix(.93 0 0 1 11.56 20.52)" font-size="23.08" font-family="Arial Narrow, Arial" style="isolation:isolate">у</text><text transform="matrix(.93 0 0 1 19.81 20.52)" font-size="23.08" font-family="Arial Narrow, Arial" style="isolation:isolate">д</text><text transform="matrix(.93 0 0 1 508.46 342.65)" font-size="23.08" font-family="Arial Narrow, Arial" style="isolation:isolate">X/R</text></svg>