<svg xmlns="http://www.w3.org/2000/svg" width="476.69" height="740.1"><path fill="none" stroke="#000" stroke-linecap="round" stroke-linejoin="round" d="M403.86 646.44v6.08M347.8 646.44v6.08M291.73 646.44v6.08M235.67 646.44v6.08M179.6 646.44v6.08M403.86 695.04v6.07M347.8 695.04v6.07M291.73 695.04v6.07M235.67 695.04v6.07M179.6 695.04v6.07M403.86 695.04v6.07M347.8 695.04v6.07M291.73 695.04v6.07M235.67 695.04v6.07M123.54 695.04v6.07M48.11 646.44h6.93M116.61 590.38h6.93M116.61 534.31h6.93M116.61 478.25h6.93M116.61 422.19h6.93M116.61 366.12h6.93M116.61 310.06h6.93M116.61 253.99h6.93M116.61 197.93h6.93M116.61 141.87h6.93M48.11 590.38h6.93M48.11 534.31h6.93M48.11 478.25h6.93M48.11 422.19h6.93M48.11 366.12h6.93M48.11 310.06h6.93M48.11 253.99h6.93M48.11 197.93h6.93M48.11 141.87h6.93M123.54 646.44h338.82M123.54 695.04h338.82M123.54 646.44V85.8M55.04 646.44V85.8"/><path fill="none" stroke="#000" stroke-linecap="round" stroke-linejoin="round" stroke-width=".5" d="M186.59 516.71l4.03-7.68M284.72 244.72l-5.39-4.46M146.61 276.4l6.24-1.34M311.24 457.48l7.09 3.21"/><path fill="none" stroke="#000" stroke-linecap="round" stroke-linejoin="round" stroke-width=".25" d="M123.54 590.38h280.32M123.54 534.31h280.32M123.54 478.25h280.32M123.54 422.19h280.32M123.54 366.12h280.32M123.54 310.06h280.32M123.54 253.99h280.32M123.54 197.93h280.32M123.54 141.87h280.32M123.54 85.8h280.32M403.86 646.44V85.8M347.8 646.44V85.8M291.73 646.44V85.8M235.67 646.44V85.8M179.6 646.44V85.8"/><path d="M123.54 590.38a397.14 397.14 0 0 0 62.17-23.55c14.66-7 29.28-14.66 42.7-23.78a298.11 298.11 0 0 0 43.53-36.67c12.9-13 25.54-27 35.33-42.36 9.53-15 17-31.78 22.94-48.56 6.88-19.47 10-40.37 13.73-60.78 4.32-23.63 6.46-47.65 9.54-71.5 3-23.1 6.06-46.18 8.71-69.32 3-26.42 5.52-52.89 8-79.37q2.31-24.34 4.44-48.7" fill="none" stroke="#00f" stroke-linecap="round" stroke-linejoin="round" stroke-width="2"/><path d="M403.86 186.23q-15.3 4.62-30.07 10.5c-17.9 7.13-35.09 16.24-52 25.58-12 6.64-24.18 13.27-35.35 21.16a296.49 296.49 0 0 0-41.23 35.93 350.46 350.46 0 0 0-36.77 45.6 368.1 368.1 0 0 0-25.12 42.21c-6.64 13.15-12.15 26.93-17.44 40.7-6.28 16.33-11.67 33.09-16.67 49.86-6 20.33-11.31 41-15.46 61.74a666.25 666.25 0 0 0-10.25 70.86" fill="none" stroke="#00f" stroke-linecap="round" stroke-linejoin="round" stroke-width="2"/><path d="M123.54 460.34q19 19.41 39.47 37.07c13.16 11.33 26.87 22.11 40.88 32.37 15.08 11 30.37 22.07 46.6 31.26 14.68 8.31 30 16.1 45.77 21.91a291.72 291.72 0 0 0 45.21 12.28 295.16 295.16 0 0 0 47 5.44q7.67.23 15.36 0" fill="none" stroke="#00f" stroke-linecap="round" stroke-linejoin="round" stroke-width="2"/><path d="M403.86 600.22a215.05 215.05 0 0 1-45.13-7.41c-22.53-6.25-45.26-16.29-64.18-30-11.31-8.19-21.42-18.47-31.27-28.54a365 365 0 0 1-36.37-43.2 385.53 385.53 0 0 1-29.94-50.43c-10.43-20.71-18.62-42.71-26.12-64.7-4.61-13.5-8.84-27.19-12.46-41-5.78-22-9.33-44.65-13.26-67.11-4.73-27.07-8.42-54.33-12.06-81.58q-5.31-39.75-9.53-79.64" fill="none" stroke="#00f" stroke-linecap="round" stroke-linejoin="round" stroke-width="2"/><text transform="matrix(.96 0 0 1 318.53 474.32)" font-size="28.69" font-family="Arial Narrow, Arial">Z</text><text transform="matrix(.96 0 0 1 336.42 474.32)" font-size="16.07" font-family="Arial Narrow, Arial">0НГ</text><text transform="matrix(.96 0 0 1 248.53 236.84)" font-size="28.69" font-family="Arial Narrow, Arial">E</text><text transform="matrix(.96 0 0 1 267.5 236.84)" font-size="16.07" font-family="Arial Narrow, Arial">НГ</text><text transform="matrix(.96 0 0 1 155.05 283.84)" font-size="28.69" font-family="Arial Narrow, Arial">Z</text><text transform="matrix(.96 0 0 1 171.37 283.84)" font-size="16.07" font-family="Arial Narrow, Arial">1НГ</text><text transform="matrix(.96 0 0 1 181.08 504.62)" font-size="28.69" font-family="Arial Narrow, Arial">Z</text><text transform="matrix(.96 0 0 1 198.97 504.62)" font-size="16.07" font-family="Arial Narrow, Arial">2НГ</text><text transform="matrix(.96 0 0 1 109.46 682.54)" font-size="25" font-family="Arial Narrow, Arial">0</text><text transform="matrix(.96 0 0 1 161.19 681.64)" font-size="25" font-family="Arial Narrow, Arial">0,2</text><text transform="matrix(.96 0 0 1 215.36 681.59)" font-size="25" font-family="Arial Narrow, Arial">0,4</text><text transform="matrix(.96 0 0 1 269.52 681.14)" font-size="25" font-family="Arial Narrow, Arial">0,6</text><text transform="matrix(.96 0 0 1 334.25 681.14)" font-size="25" font-family="Arial Narrow, Arial">0,8</text><text transform="matrix(.96 0 0 1 388.36 681.14)" font-size="25" font-family="Arial Narrow, Arial">1,0</text><text transform="matrix(.96 0 0 1 436.39 684.49)" font-size="28.69" font-family="Arial Narrow, Arial" letter-spacing="-.01em">P</text><text transform="matrix(.96 0 0 1 451.29 684.49)" font-size="16.07" font-family="Arial Narrow, Arial">АД</text><text transform="matrix(.96 0 0 1 437.5 731.3)" font-size="28.69" font-family="Arial Narrow, Arial" letter-spacing="-.01em">P</text><text transform="matrix(.96 0 0 1 452.4 731.3)" font-size="16.07" font-family="Arial Narrow, Arial">ЭУ</text><text transform="matrix(.96 0 0 1 108.3 730.85)" font-size="25" font-family="Arial Narrow, Arial">1,0</text><text transform="matrix(.96 0 0 1 160.09 729.95)" font-size="25" font-family="Arial Narrow, Arial">0,8</text><text transform="matrix(.96 0 0 1 217.5 729.45)" font-size="25" font-family="Arial Narrow, Arial">0,6</text><text transform="matrix(.96 0 0 1 275.74 729.9)" font-size="25" font-family="Arial Narrow, Arial">0,4</text><text transform="matrix(.96 0 0 1 329.9 729.45)" font-size="25" font-family="Arial Narrow, Arial">0,2</text><text transform="matrix(.96 0 0 1 396.26 729.45)" font-size="25" font-family="Arial Narrow, Arial">0</text><text transform="matrix(.96 0 0 1 79.61 598.57)" font-size="25" font-family="Arial Narrow, Arial">0,2</text><text transform="matrix(.96 0 0 1 80.11 542.78)" font-size="25" font-family="Arial Narrow, Arial">0,3</text><text transform="matrix(.96 0 0 1 80.11 487.16)" font-size="25" font-family="Arial Narrow, Arial">0,4</text><text transform="matrix(.96 0 0 1 80.11 430.65)" font-size="25" font-family="Arial Narrow, Arial">0,5</text><text transform="matrix(.96 0 0 1 80.11 374.59)" font-size="25" font-family="Arial Narrow, Arial">0,6</text><text transform="matrix(.96 0 0 1 80.11 318.53)" font-size="25" font-family="Arial Narrow, Arial">0,7</text><text transform="matrix(.96 0 0 1 80.11 262.46)" font-size="25" font-family="Arial Narrow, Arial">0,8</text><text transform="matrix(.96 0 0 1 80.11 206.4)" font-size="25" font-family="Arial Narrow, Arial">0,9</text><text transform="matrix(.96 0 0 1 7.96 600.04)" font-size="25" font-family="Arial Narrow, Arial">1,0</text><text transform="matrix(.96 0 0 1 8.02 542.59)" font-size="25" font-family="Arial Narrow, Arial">2,0</text><text transform="matrix(.96 0 0 1 7.67 486.83)" font-size="25" font-family="Arial Narrow, Arial">3,0</text><text transform="matrix(.96 0 0 1 7.81 429.05)" font-size="25" font-family="Arial Narrow, Arial">4,0</text><text transform="matrix(.96 0 0 1 7.21 374.24)" font-size="25" font-family="Arial Narrow, Arial">5,0</text><text transform="matrix(.96 0 0 1 7.21 320.76)" font-size="25" font-family="Arial Narrow, Arial">6,0</text><text transform="matrix(.96 0 0 1 7.81 262.45)" font-size="25" font-family="Arial Narrow, Arial">7,0</text><text transform="matrix(.96 0 0 1 8.27 205.43)" font-size="25" font-family="Arial Narrow, Arial">8,0</text><text transform="matrix(.96 0 0 1 8.02 149.07)" font-size="25" font-family="Arial Narrow, Arial">9,0</text><text transform="matrix(.96 0 0 1 22.71 655.18)" font-size="25" font-family="Arial Narrow, Arial">0</text><text transform="matrix(.96 0 0 1 68.87 106.32)" font-size="30" font-family="Arial Narrow, Arial" style="isolation:isolate">Z</text><text transform="matrix(.96 0 0 1 84.25 106.32)" font-size="18.11" font-family="Arial Narrow, Arial" style="isolation:isolate">1НГ</text><text transform="matrix(.96 0 0 1 68.87 138.42)" font-size="30" font-family="Arial Narrow, Arial" style="isolation:isolate">Z</text><text transform="matrix(.96 0 0 1 86.01 138.42)" font-size="18.11" font-family="Arial Narrow, Arial" style="isolation:isolate">2НГ</text><text transform="matrix(.96 0 0 1 68.87 170.52)" font-size="30" font-family="Arial Narrow, Arial" style="isolation:isolate">E</text><text transform="matrix(.96 0 0 1 87.23 170.52)" font-size="18.11" font-family="Arial Narrow, Arial" style="isolation:isolate">НГ</text><text transform="matrix(.96 0 0 1 0 106.32)" font-size="30" font-family="Arial Narrow, Arial" style="isolation:isolate">Z</text><text transform="matrix(.96 0 0 1 17.16 106.32)" font-size="18.11" font-family="Arial Narrow, Arial" style="isolation:isolate">0НГ</text><text transform="matrix(.96 0 0 1 413.04 634.05)" font-size="32.32" font-family="Arial Narrow, Arial" letter-spacing="-.02em" style="isolation:isolate">P</text><text transform="matrix(.96 0 0 1 429.46 634.75)" font-size="18.11" font-family="Arial Narrow, Arial" style="isolation:isolate">1</text><g style="isolation:isolate" font-size="32.32" font-family="Arial Narrow, Arial"><text transform="matrix(.96 0 0 1 440.39 634.05)" style="isolation:isolate">/</text><text transform="matrix(.96 0 0 1 447.47 634.05)" letter-spacing="-.02em" style="isolation:isolate">P</text></g><text transform="matrix(.96 0 0 1 465.95 636.16)" font-size="18.11" font-family="Arial Narrow, Arial" style="isolation:isolate">Ʃ</text><text transform="matrix(.96 0 0 1 211.83 49.23)" font-size="32" font-family="Arial Narrow, Arial">АД+ЭУ</text></svg>