<svg xmlns="http://www.w3.org/2000/svg" width="350" height="289.6"><path d="M33.87 1L50 48.11l19.14 42.7c5.86 14.73 13.23 29.46 22.14 41.23a245.89 245.89 0 0 0 23.5 26.56A357.84 357.84 0 0 0 184 216.03c19.14 10.3 39.75 17.7 60.37 25a469.75 469.75 0 0 0 53.08 14.74 487.42 487.42 0 0 0 51.55 7.4" fill="none" stroke="#00f" stroke-linecap="round" stroke-linejoin="round" stroke-width="2"/><path d="M33.87 263.12H349" fill="none" stroke="#000" stroke-linecap="round" stroke-linejoin="round"/><path d="M349 263.12V1m0 0H33.87" fill="none" stroke="#000" stroke-linecap="round" stroke-linejoin="round" stroke-width=".25"/><path d="M33.87 1v262.12" fill="none" stroke="#000" stroke-linecap="round" stroke-linejoin="round"/><path d="M349 54.01H33.87M349 105.55H33.87m315.13 53H33.87m315.13 53H33.87m263.6 51.56V1m-53 262.13V1m-53 262.12V1m-53 262.13V1M86.91 263.12V1" fill="none" stroke="#000" stroke-linecap="round" stroke-linejoin="round" stroke-width=".25"/><text transform="matrix(.93 0 0 1 27.97 283.73)" font-size="19.14" font-family="Arial Narrow, Arial" style="isolation:isolate">0</text><text transform="matrix(.93 0 0 1 72.15 283.73)" font-size="19.14" font-family="Arial Narrow, Arial" style="isolation:isolate">0,2</text><text transform="matrix(.93 0 0 1 123.71 283.73)" font-size="19.14" font-family="Arial Narrow, Arial" style="isolation:isolate">0,4</text><text transform="matrix(.93 0 0 1 176.71 283.73)" font-size="19.14" font-family="Arial Narrow, Arial" style="isolation:isolate">0,6</text><text transform="matrix(.93 0 0 1 229.73 283.73)" font-size="19.14" font-family="Arial Narrow, Arial" style="isolation:isolate">0,8</text><text transform="matrix(.93 0 0 1 288.64 283.73)" font-size="19.14" font-family="Arial Narrow, Arial" style="isolation:isolate">1</text><text transform="matrix(.93 0 0 1 0 214.52)" font-size="19.14" font-family="Arial Narrow, Arial" style="isolation:isolate">1,2</text><text transform="matrix(.93 0 0 1 2.95 267.55)" font-size="19.14" font-family="Arial Narrow, Arial" style="isolation:isolate">1</text><text transform="matrix(.93 0 0 1 0 162.98)" font-size="19.14" font-family="Arial Narrow, Arial" style="isolation:isolate">1,4</text><text transform="matrix(.93 0 0 1 0 109.97)" font-size="19.14" font-family="Arial Narrow, Arial" style="isolation:isolate">1,6</text><text transform="matrix(.93 0 0 1 0 56.96)" font-size="19.14" font-family="Arial Narrow, Arial" style="isolation:isolate">1,8</text><text transform="matrix(.93 0 0 1 0 17.21)" font-size="19.14" font-family="Arial Narrow, Arial" style="isolation:isolate">К</text><text transform="matrix(.93 0 0 1 9.58 17.21)" font-size="19.14" font-family="Arial Narrow, Arial" style="isolation:isolate">у</text><text transform="matrix(.93 0 0 1 16.43 17.21)" font-size="19.14" font-family="Arial Narrow, Arial" style="isolation:isolate">д</text><text transform="matrix(.93 0 0 1 315.86 283.37)" font-size="19.14" font-family="Arial Narrow, Arial" style="isolation:isolate">R/X</text></svg>