<svg xmlns="http://www.w3.org/2000/svg" width="427.84" height="738.46"><path fill="none" stroke="#000" stroke-linecap="round" stroke-linejoin="round" d="M49.66 693.69v6.77M49.66 638.78v6.77M111.64 586.15v6.78M173.63 586.15v6.78M235.61 586.15v6.78M297.59 586.15v6.78M359.58 586.15v6.78M111.64 638.78v6.77M173.63 638.78v6.77M235.61 638.78v6.77M297.59 638.78v6.77M359.58 638.78v6.77M111.64 693.69v6.77M173.63 693.69v6.77M235.61 693.69v6.77M297.59 693.69v6.77M359.58 693.69v6.77M41.94 586.15h7.72M41.94 525.35h7.72M41.94 464.54h7.72M41.94 403.74h7.72M41.94 342.94h7.72M41.94 282.13h7.72M41.94 221.33h7.72M49.66 693.69h376.85M49.66 586.15h376.85M49.66 586.15V99.72M49.66 638.78h376.85"/><path fill="none" stroke="#000" stroke-linecap="round" stroke-linejoin="round" stroke-width=".5" d="M131.39 379.42l-3.89 10.67M203.12 490.24l-12.19-13.41M335.76 405.17l-4.74 16.55"/><path fill="none" stroke="#000" stroke-linecap="round" stroke-linejoin="round" stroke-width=".25" d="M49.66 525.35h309.92M49.66 464.54h309.92M49.66 403.74h309.92M49.66 342.94h309.92M49.66 282.13h309.92M49.66 221.33h309.92M49.66 160.52h309.92M359.58 99.72H49.66M111.64 99.38v486.77M173.63 99.38v486.77M235.61 99.38v486.77M297.59 99.38v486.77M359.58 99.38v486.77"/><path d="M49.66 553.72a384.29 384.29 0 0 0 63.93-25.27 391.66 391.66 0 0 0 74.46-49.19 401.84 401.84 0 0 0 65.59-70.16c16.93-23.14 31-49 43.28-75 10.76-22.77 19.44-46.73 27.44-70.68 7.25-21.8 13.79-44 18.82-66.39 4-17.92 6.66-36.16 9.68-54.3q3.57-21.47 6.75-43" fill="none" stroke="#00f" stroke-linecap="round" stroke-linejoin="round" stroke-width="2"/><path d="M49.66 369.25a306.23 306.23 0 0 0 35.26 12.27c17.79 5 36.31 8 54.66 10.08 25.88 2.93 52.32 2.18 78.4 1.12 21.09-.86 42.26-2.51 63.17-5.38a569.54 569.54 0 0 0 56.9-10.53q10.82-2.63 21.54-5.71" fill="none" stroke="#00f" stroke-linecap="round" stroke-linejoin="round" stroke-width="2"/><path d="M49.66 369.25a306.23 306.23 0 0 0 35.26 12.27c17.79 5 36.35 7.36 54.66 10.08 26.6 4 53.52 5.92 80.36 7.82 22.06 1.56 44.19 2.15 66.28 3.24 18.17.9 36.32 2 54.49 2.71q9.43.36 18.86.61" fill="none" stroke="#00f" stroke-linecap="round" stroke-linejoin="round" stroke-width="2"/><text transform="matrix(.96 0 0 1 308.22 442.27)" font-size="31.99" font-family="Arial Narrow, Arial">Z</text><text transform="matrix(.96 0 0 1 328.17 442.27)" font-size="17.91" font-family="Arial Narrow, Arial">0НГ</text><text transform="matrix(.96 0 0 1 128.27 374.37)" font-size="31.99" font-family="Arial Narrow, Arial">Z</text><text transform="matrix(.96 0 0 1 146.47 374.37)" font-size="17.91" font-family="Arial Narrow, Arial">1НГ</text><text transform="matrix(.96 0 0 1 192.75 517.54)" font-size="31.99" font-family="Arial Narrow, Arial">Z</text><text transform="matrix(.96 0 0 1 212.7 517.54)" font-size="17.91" font-family="Arial Narrow, Arial">2НГ</text><text transform="matrix(.96 0 0 1 77.95 54.89)" font-size="32" font-family="Arial Narrow, Arial">ЛН+П+ЭУ</text><text transform="matrix(.96 0 0 1 116.64 153.11)" font-size="31.99" font-family="Arial Narrow, Arial">E</text><text transform="matrix(.96 0 0 1 137.78 153.11)" font-size="17.91" font-family="Arial Narrow, Arial">НГ</text><text transform="matrix(.96 0 0 1 160.51 153.11)" font-size="31.99" font-family="Arial Narrow, Arial">=0</text><text transform="matrix(.96 0 0 1 382.64 622.31)" font-size="31.99" font-family="Arial Narrow, Arial" letter-spacing="-.01em">P</text><text transform="matrix(.96 0 0 1 400.83 622.31)" font-size="17.91" font-family="Arial Narrow, Arial">П</text><text transform="matrix(.96 0 0 1 382.64 674.95)" font-size="31.99" font-family="Arial Narrow, Arial" letter-spacing="-.01em">P</text><text transform="matrix(.96 0 0 1 400.83 674.95)" font-size="17.91" font-family="Arial Narrow, Arial">ЛН</text><text transform="matrix(.96 0 0 1 382.64 727.59)" font-size="31.99" font-family="Arial Narrow, Arial" letter-spacing="-.01em">P</text><text transform="matrix(.96 0 0 1 400.83 727.59)" font-size="17.91" font-family="Arial Narrow, Arial">ЭУ</text><text transform="matrix(.96 0 0 1 39.39 621.25)" font-size="25" font-family="Arial Narrow, Arial">0</text><text transform="matrix(.96 0 0 1 91.63 620.25)" font-size="25" font-family="Arial Narrow, Arial">0,2</text><text transform="matrix(.96 0 0 1 152.02 620.19)" font-size="25" font-family="Arial Narrow, Arial">0,4</text><text transform="matrix(.96 0 0 1 212.41 619.69)" font-size="25" font-family="Arial Narrow, Arial">0,6</text><text transform="matrix(.96 0 0 1 280.95 619.69)" font-size="25" font-family="Arial Narrow, Arial">0,8</text><text transform="matrix(.96 0 0 1 341.27 619.69)" font-size="25" font-family="Arial Narrow, Arial">1,0</text><text transform="matrix(.96 0 0 1 33.96 674.88)" font-size="25" font-family="Arial Narrow, Arial">0,2</text><text transform="matrix(.96 0 0 1 91.63 673.88)" font-size="25" font-family="Arial Narrow, Arial">0,18</text><text transform="matrix(.96 0 0 1 152.02 673.32)" font-size="25" font-family="Arial Narrow, Arial">0,12</text><text transform="matrix(.96 0 0 1 212.41 673.32)" font-size="25" font-family="Arial Narrow, Arial">0,08</text><text transform="matrix(.96 0 0 1 280.95 673.81)" font-size="25" font-family="Arial Narrow, Arial">0,04</text><text transform="matrix(.96 0 0 1 352.2 673.32)" font-size="25" font-family="Arial Narrow, Arial">0</text><text transform="matrix(.96 0 0 1 33.96 730.79)" font-size="25" font-family="Arial Narrow, Arial">0,8</text><text transform="matrix(.96 0 0 1 91.63 730.28)" font-size="25" font-family="Arial Narrow, Arial">0,64</text><text transform="matrix(.96 0 0 1 152.02 729.72)" font-size="25" font-family="Arial Narrow, Arial">0,48</text><text transform="matrix(.96 0 0 1 212.41 729.23)" font-size="25" font-family="Arial Narrow, Arial">0,32</text><text transform="matrix(.96 0 0 1 280.95 729.23)" font-size="25" font-family="Arial Narrow, Arial">0,16</text><text transform="matrix(.96 0 0 1 352.2 729.23)" font-size="25" font-family="Arial Narrow, Arial">0</text><text transform="matrix(.96 0 0 1 105.27 188.25)" font-size="31.99" font-family="Arial Narrow, Arial">cosφ</text><text transform="matrix(.96 0 0 1 171.55 191.25)" font-size="17.91" font-family="Arial Narrow, Arial">НГ</text><text transform="matrix(.96 0 0 1 194.28 191.25)" font-size="31.99" font-family="Arial Narrow, Arial">=0,9-1</text><text transform="matrix(.96 0 0 1 1.5 594)" font-size="25" font-family="Arial Narrow, Arial">0,4</text><text transform="matrix(.96 0 0 1 1.5 532.7)" font-size="25" font-family="Arial Narrow, Arial">0,6</text><text transform="matrix(.96 0 0 1 1.5 471.89)" font-size="25" font-family="Arial Narrow, Arial">0,8</text><text transform="matrix(.96 0 0 1 1.43 411.09)" font-size="25" font-family="Arial Narrow, Arial">1,0</text><text transform="matrix(.96 0 0 1 1.43 350.28)" font-size="25" font-family="Arial Narrow, Arial">1,2</text><text transform="matrix(.96 0 0 1 1.43 289.98)" font-size="25" font-family="Arial Narrow, Arial">1,4</text><text transform="matrix(.96 0 0 1 1.43 228.67)" font-size="25" font-family="Arial Narrow, Arial">1,6</text><text transform="matrix(.96 0 0 1 364.19 574.26)" font-size="32.32" font-family="Arial Narrow, Arial" letter-spacing="-.02em" style="isolation:isolate">P</text><text transform="matrix(.96 0 0 1 380.6 574.95)" font-size="18.11" font-family="Arial Narrow, Arial" style="isolation:isolate">1</text><g style="isolation:isolate" font-size="32.32" font-family="Arial Narrow, Arial"><text transform="matrix(.96 0 0 1 391.53 574.26)" style="isolation:isolate">/</text><text transform="matrix(.96 0 0 1 398.61 574.26)" letter-spacing="-.02em" style="isolation:isolate">P</text></g><text transform="matrix(.96 0 0 1 417.09 576.37)" font-size="18.11" font-family="Arial Narrow, Arial" style="isolation:isolate">Ʃ</text><text transform="matrix(.96 0 0 1 0 157.66)" font-size="30" font-family="Arial Narrow, Arial" style="isolation:isolate">Z</text><text transform="matrix(.96 0 0 1 15.39 157.66)" font-size="18.11" font-family="Arial Narrow, Arial" style="isolation:isolate">1НГ</text><text transform="matrix(.96 0 0 1 0 189.75)" font-size="30" font-family="Arial Narrow, Arial" style="isolation:isolate">Z</text><text transform="matrix(.96 0 0 1 17.15 189.75)" font-size="18.11" font-family="Arial Narrow, Arial" style="isolation:isolate">2НГ</text><text transform="matrix(.96 0 0 1 1.85 125.66)" font-size="30" font-family="Arial Narrow, Arial" style="isolation:isolate">Z</text><text transform="matrix(.96 0 0 1 19.01 125.66)" font-size="18.11" font-family="Arial Narrow, Arial" style="isolation:isolate">0НГ</text></svg>