<svg xmlns="http://www.w3.org/2000/svg" width="517.05" height="747.4"><path fill="none" stroke="#000" stroke-linecap="round" stroke-linejoin="round" d="M131.2 645.28h382.59M131.2 645.28V98.73M129.96 699.17h382.59M52.03 645.28V98.73M123.43 220.18h7.77M44.27 220.18h7.76M123.43 280.91h7.77M44.27 280.91h7.76M123.43 341.64h7.77M44.27 341.64h7.76M123.43 402.37h7.77M44.27 402.37h7.76M123.43 463.1h7.77M44.27 463.1h7.76M123.43 523.83h7.77M44.27 523.83h7.76M123.43 584.55h7.77M44.27 584.55h7.76M123.43 645.28h7.77M44.27 645.28h7.76M123.43 159.45h7.77M44.27 159.45h7.76M191.93 645.28v6.82M252.66 645.28v6.82M313.39 645.28v6.82M374.11 645.28v6.82M434.84 645.28v6.82M191.93 699.17v6.81M252.66 699.17v6.81M313.39 699.17v6.81M374.11 699.17v6.81M434.84 699.17v6.81M131.2 699.17v6.81"/><path fill="none" stroke="#000" stroke-linecap="round" stroke-linejoin="round" stroke-width=".5" d="M351.3 495.16l-4.84-3.14M336.5 387.19l-5.92-8.61M193.88 440.59l7.09-10.89M185.59 465.24l-20.25 6.87"/><path fill="none" stroke="#000" stroke-linecap="round" stroke-linejoin="round" stroke-width=".25" d="M191.93 645.28V98.73M252.66 645.28V98.73M313.39 645.28V98.73M374.11 645.28V98.73M434.84 645.28V98.73M434.84 584.55H131.2M434.84 523.83H131.2M434.84 463.1H131.2M434.84 402.37H131.2M434.84 341.64H131.2M434.84 280.91H131.2M434.84 220.18H131.2M434.84 159.45H131.2M434.84 98.73H131.2"/><path d="M131.2 645.28a326.71 326.71 0 0 0 36.39-6.51 280.36 280.36 0 0 0 39.8-12.2 263.57 263.57 0 0 0 37.73-19.15c17.45-10.57 33.81-23.51 48.81-37.36 13.19-12.18 26.06-25.33 36.61-39.8 11.19-15.36 19.85-32.85 28-50.12 8.51-18.09 16.19-36.92 21.59-56.13 5.92-21.05 8.43-43.18 11.26-65 3.1-23.76 4.13-47.8 6-71.71 2-25.77 3.82-51.56 5.63-77.34s3.55-51.68 5.26-77.53q1.11-16.88 2.2-33.77" fill="none" stroke="#00f" stroke-linecap="round" stroke-linejoin="round" stroke-width="2"/><path d="M131.2 645.28q3-21.79 7.8-43.15c3.67-16.19 7.35-32.66 13.45-48a250 250 0 0 1 23-44 277 277 0 0 1 28.31-36 297.16 297.16 0 0 1 40.2-36.29c12.63-9.46 26.42-17.59 40.2-25.34a465.59 465.59 0 0 1 63-29.57c16.82-6.37 34.25-11.37 51.62-16.11q17.88-4.89 36-8.89" fill="none" stroke="#00f" stroke-linecap="round" stroke-linejoin="round" stroke-width="2"/><path d="M434.84 597.4a287.38 287.38 0 0 1-44.32-6 292.14 292.14 0 0 1-151.15-85.79 288.13 288.13 0 0 1-26.13-32.44 319.48 319.48 0 0 1-24.78-43.48 379.31 379.31 0 0 1-18.92-48c-7.47-23.22-12.09-47.51-16-71.63-2.88-17.81-4.35-35.88-6.31-53.84-2.88-26.47-5-53-7.66-79.52q-4-39-8.38-78" fill="none" stroke="#00f" stroke-linecap="round" stroke-linejoin="round" stroke-width="2"/><path d="M434.84 597.61a286.4 286.4 0 0 1-44.06-6c-21.62-4.66-42.71-12.9-63.11-21.6-19.43-8.28-38.72-17.66-56.56-28.92a350.91 350.91 0 0 1-45.05-33.79c-10.93-9.68-21.82-19.83-31-31.13-11.4-14.07-20.17-30.56-28.76-46.56a485.51 485.51 0 0 1-21.09-45.58c-5.15-12.63-9.37-25.65-14-38.49" fill="none" stroke="#00f" stroke-linecap="round" stroke-linejoin="round" stroke-width="2"/><text transform="matrix(.96 0 0 1 297.7 494.39)" font-size="32.17" font-family="Arial Narrow, Arial">Z</text><text transform="matrix(.96 0 0 1 317.76 494.39)" font-size="18.01" font-family="Arial Narrow, Arial">0НГ</text><text transform="matrix(.96 0 0 1 319.83 374.36)" font-size="32.17" font-family="Arial Narrow, Arial">E</text><text transform="matrix(.96 0 0 1 341.1 374.36)" font-size="18.01" font-family="Arial Narrow, Arial">НГ</text><text transform="matrix(.96 0 0 1 138.46 489.43)" font-size="32.17" font-family="Arial Narrow, Arial">Z</text><text transform="matrix(.96 0 0 1 156.76 489.43)" font-size="18.01" font-family="Arial Narrow, Arial">1НГ</text><text transform="matrix(.96 0 0 1 197.4 426.87)" font-size="32.17" font-family="Arial Narrow, Arial">Z</text><text transform="matrix(.96 0 0 1 217.46 426.87)" font-size="18.01" font-family="Arial Narrow, Arial">2НГ</text><text transform="matrix(.96 0 0 1 115.41 684.55)" font-size="26" font-family="Arial Narrow, Arial">0</text><text transform="matrix(.96 0 0 1 173.41 683.54)" font-size="26" font-family="Arial Narrow, Arial">0,2</text><text transform="matrix(.96 0 0 1 234.13 683.48)" font-size="26" font-family="Arial Narrow, Arial">0,4</text><text transform="matrix(.96 0 0 1 294.86 682.98)" font-size="26" font-family="Arial Narrow, Arial">0,6</text><text transform="matrix(.96 0 0 1 355.59 682.98)" font-size="26" font-family="Arial Narrow, Arial">0,8</text><text transform="matrix(.96 0 0 1 416.25 682.98)" font-size="26" font-family="Arial Narrow, Arial">1,0</text><text transform="matrix(.96 0 0 1 476.67 681.61)" font-size="32.17" font-family="Arial Narrow, Arial" letter-spacing="-.01em">P</text><text transform="matrix(.96 0 0 1 493.98 681.61)" font-size="18.01" font-family="Arial Narrow, Arial">АД</text><text transform="matrix(.96 0 0 1 477.91 731.45)" font-size="32.17" font-family="Arial Narrow, Arial" letter-spacing="-.01em">P</text><text transform="matrix(.96 0 0 1 495.22 731.45)" font-size="18.01" font-family="Arial Narrow, Arial">П</text><text transform="matrix(.96 0 0 1 114.11 739.43)" font-size="26" font-family="Arial Narrow, Arial">1,0</text><text transform="matrix(.96 0 0 1 172.17 738.42)" font-size="26" font-family="Arial Narrow, Arial">0,8</text><text transform="matrix(.96 0 0 1 232.9 737.86)" font-size="26" font-family="Arial Narrow, Arial">0,6</text><text transform="matrix(.96 0 0 1 293.63 738.36)" font-size="26" font-family="Arial Narrow, Arial">0,4</text><text transform="matrix(.96 0 0 1 354.36 737.86)" font-size="26" font-family="Arial Narrow, Arial">0,2</text><text transform="matrix(.96 0 0 1 426.02 737.86)" font-size="26" font-family="Arial Narrow, Arial">0</text><text transform="matrix(.96 0 0 1 .18 655.35)" font-size="26" font-family="Arial Narrow, Arial">1,0</text><text transform="matrix(.96 0 0 1 .24 595.49)" font-size="26" font-family="Arial Narrow, Arial">2,0</text><text transform="matrix(.96 0 0 1 .76 533.89)" font-size="26" font-family="Arial Narrow, Arial">3,0</text><text transform="matrix(.96 0 0 1 .01 473.66)" font-size="26" font-family="Arial Narrow, Arial">4,0</text><text transform="matrix(.96 0 0 1 .24 412.21)" font-size="26" font-family="Arial Narrow, Arial">5,0</text><text transform="matrix(.96 0 0 1 .24 352.26)" font-size="26" font-family="Arial Narrow, Arial">6,0</text><text transform="matrix(.96 0 0 1 0 291.43)" font-size="26" font-family="Arial Narrow, Arial">7,0</text><text transform="matrix(.96 0 0 1 .52 230.25)" font-size="26" font-family="Arial Narrow, Arial">8,0</text><text transform="matrix(.96 0 0 1 .24 169.79)" font-size="26" font-family="Arial Narrow, Arial">9,0</text><text transform="matrix(.96 0 0 1 203.56 55.2)" font-size="32" font-family="Arial Narrow, Arial">АД+П</text><text transform="matrix(.96 0 0 1 75.67 593.62)" font-size="26" font-family="Arial Narrow, Arial">0,2</text><text transform="matrix(.96 0 0 1 76.23 533.39)" font-size="26" font-family="Arial Narrow, Arial">0,4</text><text transform="matrix(.96 0 0 1 77.34 471.47)" font-size="26" font-family="Arial Narrow, Arial">1,0</text><text transform="matrix(.96 0 0 1 77.41 410.28)" font-size="26" font-family="Arial Narrow, Arial">0,8</text><text transform="matrix(.96 0 0 1 77.34 351.55)" font-size="26" font-family="Arial Narrow, Arial">1,0</text><text transform="matrix(.96 0 0 1 73.55 289.98)" font-size="26" font-family="Arial Narrow, Arial">1,2</text><text transform="matrix(.96 0 0 1 73.55 227.88)" font-size="26" font-family="Arial Narrow, Arial">1,4</text><text transform="matrix(.96 0 0 1 453.4 634.52)" font-size="32.32" font-family="Arial Narrow, Arial" letter-spacing="-.02em" style="isolation:isolate">P</text><text transform="matrix(.96 0 0 1 469.81 635.21)" font-size="18.11" font-family="Arial Narrow, Arial" style="isolation:isolate">1</text><g style="isolation:isolate" font-size="32.32" font-family="Arial Narrow, Arial"><text transform="matrix(.96 0 0 1 480.74 634.52)" style="isolation:isolate">/</text><text transform="matrix(.96 0 0 1 487.82 634.52)" letter-spacing="-.02em" style="isolation:isolate">P</text></g><text transform="matrix(.96 0 0 1 506.3 636.62)" font-size="18.11" font-family="Arial Narrow, Arial" style="isolation:isolate">Ʃ</text><text transform="matrix(.96 0 0 1 69.87 120.94)" font-size="30" font-family="Arial Narrow, Arial" style="isolation:isolate">Z</text><text transform="matrix(.96 0 0 1 85.25 120.94)" font-size="18.11" font-family="Arial Narrow, Arial" style="isolation:isolate">1НГ</text><text transform="matrix(.96 0 0 1 69.87 153.03)" font-size="30" font-family="Arial Narrow, Arial" style="isolation:isolate">Z</text><text transform="matrix(.96 0 0 1 87.01 153.03)" font-size="18.11" font-family="Arial Narrow, Arial" style="isolation:isolate">2НГ</text><text transform="matrix(.96 0 0 1 69.87 185.13)" font-size="30" font-family="Arial Narrow, Arial" style="isolation:isolate">E</text><text transform="matrix(.96 0 0 1 88.23 185.13)" font-size="18.11" font-family="Arial Narrow, Arial" style="isolation:isolate">НГ</text><text transform="matrix(.96 0 0 1 1 120.94)" font-size="30" font-family="Arial Narrow, Arial" style="isolation:isolate">Z</text><text transform="matrix(.96 0 0 1 18.16 120.94)" font-size="18.11" font-family="Arial Narrow, Arial" style="isolation:isolate">0НГ</text></svg>