<svg xmlns="http://www.w3.org/2000/svg" width="476.69" height="735.72"><path fill="none" stroke="#000" stroke-linecap="round" stroke-linejoin="round" d="M175.63 643.94v6.05M231.47 643.94v6.05M287.32 643.94v6.05M343.17 643.94v6.05M399.01 643.94v6.05M175.63 692.35v6.05M231.47 692.35v6.05M287.32 692.35v6.05M343.17 692.35v6.05M399.01 692.35v6.05M119.78 692.35v6.05M112.88 588.09h6.9M112.88 532.25h6.9M112.88 476.4h6.9M112.88 420.55h6.9M112.88 364.71h6.9M112.88 308.86h6.9M112.88 253.01h6.9M112.88 197.17h6.9M112.88 141.32h6.9M44.65 588.09h6.9M44.65 532.25h6.9M44.65 476.4h6.9M44.65 420.55h6.9M44.65 364.71h6.9M44.65 308.86h6.9M44.65 253.01h6.9M44.65 197.17h6.9M44.65 141.32h6.9M44.65 643.94h6.9M112.88 643.94h6.9M119.78 643.94h337.51M119.78 692.35h337.51M119.78 643.94V85.48M51.55 643.94V85.48"/><path fill="none" stroke="#000" stroke-linecap="round" stroke-linejoin="round" stroke-width=".5" d="M204.91 495.39l6.86-10.98M256.32 218l3.08 10.42M199.15 387.53l-13.54 1.46M335.26 403.21l-7.77-1.54"/><path fill="none" stroke="#000" stroke-linecap="round" stroke-linejoin="round" stroke-width=".25" d="M119.78 588.09h279.23M119.78 532.25h279.23M119.78 476.4h279.23M119.78 420.55h279.23M119.78 364.71h279.23M119.78 308.86h279.23M119.78 253.01h279.23M119.78 197.17h279.23M119.78 141.32h279.23M119.78 85.48h279.23M399.01 643.94V85.48M343.17 643.94V85.48M287.32 643.94V85.48M231.47 643.94V85.48M175.63 643.94V85.48"/><path d="M119.78 588.09q2.28-25.12 6.14-50c2.76-17.8 6.35-35.5 10.09-53.13q6-28.07 13.2-55.87c5.06-19.44 10.36-38.86 16.54-58 8.17-25.26 15.18-51.65 28-74.63 10.81-19.36 25.22-37.22 39.87-54 15.79-18.12 33.21-35.4 52.12-50.2 16.24-12.71 33.69-24.93 52.12-33.87a248.72 248.72 0 0 1 61.14-20.3" fill="none" stroke="#00f" stroke-linecap="round" stroke-linejoin="round" stroke-width="2"/><path d="M119.78 588.09a215.72 215.72 0 0 0 45.09-5.9 206.42 206.42 0 0 0 53.28-20.73c18.54-10.59 35.44-25.53 50.15-41.12 15.73-16.66 29-36.4 40.31-56.43 10.18-18 18.32-37.55 25.35-57 11-30.43 17-62.87 22.55-94.8 6.33-36.14 8.76-73 11.61-109.68q4.54-58.32 5.63-116.9" fill="none" stroke="#00f" stroke-linecap="round" stroke-linejoin="round" stroke-width="2"/><path d="M399.01 553.25a383.52 383.52 0 0 1-46.57-18.57c-16.31-7.78-31.93-17.21-47.26-26.83-16.62-10.43-33.39-21.09-48.36-33.66a315.85 315.85 0 0 1-45.23-46.43c-12.95-16.53-24.66-34.67-33.66-53.65-7.24-15.42-12.42-32-17.21-48.44a487.69 487.69 0 0 1-12.66-57q-4.13-25.14-5.87-50.67" fill="none" stroke="#00f" stroke-linecap="round" stroke-linejoin="round" stroke-width="2"/><path d="M399.01 553.25a409.28 409.28 0 0 1-45.44-9.11c-16.89-4.4-33.42-10.4-49.81-16.45-19.83-7.34-39.83-14.92-58.69-24.54-18.08-9.24-36-19.53-52.21-31.69a370.81 370.81 0 0 1-34.53-30 448.35 448.35 0 0 1-38.55-42.22" fill="none" stroke="#00f" stroke-linecap="round" stroke-linejoin="round" stroke-width="2"/><text transform="matrix(.96 0 0 1 282.03 406.79)" font-size="28.58" font-family="Arial Narrow, Arial">Z</text><text transform="matrix(.96 0 0 1 299.85 406.79)" font-size="16" font-family="Arial Narrow, Arial">0НГ</text><text transform="matrix(.96 0 0 1 253.5 251.57)" font-size="28.58" font-family="Arial Narrow, Arial">E</text><text transform="matrix(.96 0 0 1 272.4 251.57)" font-size="16" font-family="Arial Narrow, Arial">НГ</text><text transform="matrix(.96 0 0 1 196.36 396.49)" font-size="28.58" font-family="Arial Narrow, Arial">Z</text><text transform="matrix(.96 0 0 1 212.63 396.49)" font-size="16" font-family="Arial Narrow, Arial">1НГ</text><text transform="matrix(.96 0 0 1 184.38 513.56)" font-size="28.58" font-family="Arial Narrow, Arial">Z</text><text transform="matrix(.96 0 0 1 202.21 513.56)" font-size="16" font-family="Arial Narrow, Arial">2НГ</text><text transform="matrix(.96 0 0 1 105.75 677.94)" font-size="25" font-family="Arial Narrow, Arial">0</text><text transform="matrix(.96 0 0 1 157.28 677.04)" font-size="25" font-family="Arial Narrow, Arial">0,2</text><text transform="matrix(.96 0 0 1 211.24 676.99)" font-size="25" font-family="Arial Narrow, Arial">0,4</text><text transform="matrix(.96 0 0 1 271.67 676.54)" font-size="25" font-family="Arial Narrow, Arial">0,6</text><text transform="matrix(.96 0 0 1 325.63 676.54)" font-size="25" font-family="Arial Narrow, Arial">0,8</text><text transform="matrix(.96 0 0 1 381.96 676.54)" font-size="25" font-family="Arial Narrow, Arial">1,0</text><text transform="matrix(.96 0 0 1 432.4 678.88)" font-size="28.58" font-family="Arial Narrow, Arial" letter-spacing="-.01em">P</text><text transform="matrix(.96 0 0 1 452.22 678.88)" font-size="16" font-family="Arial Narrow, Arial">АД</text><text transform="matrix(.96 0 0 1 433.5 725.5)" font-size="28.58" font-family="Arial Narrow, Arial" letter-spacing="-.01em">P</text><text transform="matrix(.96 0 0 1 453.32 725.5)" font-size="16" font-family="Arial Narrow, Arial">ЛГ</text><text transform="matrix(.96 0 0 1 106.21 728.05)" font-size="25" font-family="Arial Narrow, Arial">1,0</text><text transform="matrix(.96 0 0 1 157.8 727.16)" font-size="25" font-family="Arial Narrow, Arial">0,8</text><text transform="matrix(.96 0 0 1 211.76 726.66)" font-size="25" font-family="Arial Narrow, Arial">0,6</text><text transform="matrix(.96 0 0 1 271.38 727.1)" font-size="25" font-family="Arial Narrow, Arial">0,4</text><text transform="matrix(.96 0 0 1 325.34 726.66)" font-size="25" font-family="Arial Narrow, Arial">0,2</text><text transform="matrix(.96 0 0 1 391.44 726.66)" font-size="25" font-family="Arial Narrow, Arial">0</text><text transform="matrix(.96 0 0 1 73 596.26)" font-size="25" font-family="Arial Narrow, Arial">0,1</text><text transform="matrix(.96 0 0 1 73.5 540.68)" font-size="25" font-family="Arial Narrow, Arial">0,2</text><text transform="matrix(.96 0 0 1 73.5 484.83)" font-size="25" font-family="Arial Narrow, Arial">0,3</text><text transform="matrix(.96 0 0 1 73.5 429.43)" font-size="25" font-family="Arial Narrow, Arial">0,4</text><text transform="matrix(.96 0 0 1 73.5 373.14)" font-size="25" font-family="Arial Narrow, Arial">0,5</text><text transform="matrix(.96 0 0 1 73.5 317.3)" font-size="25" font-family="Arial Narrow, Arial">0,6</text><text transform="matrix(.96 0 0 1 73.5 261.45)" font-size="25" font-family="Arial Narrow, Arial">0,7</text><text transform="matrix(.96 0 0 1 73.5 205.6)" font-size="25" font-family="Arial Narrow, Arial">0,8</text><text transform="matrix(.96 0 0 1 207.72 49.04)" font-size="32" font-family="Arial Narrow, Arial">АД+ЛГ</text><text transform="matrix(.96 0 0 1 4.63 597.72)" font-size="25" font-family="Arial Narrow, Arial">1,0</text><text transform="matrix(.96 0 0 1 4.69 540.49)" font-size="25" font-family="Arial Narrow, Arial">2,0</text><text transform="matrix(.96 0 0 1 4.34 484.95)" font-size="25" font-family="Arial Narrow, Arial">3,0</text><text transform="matrix(.96 0 0 1 4.48 427.39)" font-size="25" font-family="Arial Narrow, Arial">4,0</text><text transform="matrix(.96 0 0 1 3.88 372.79)" font-size="25" font-family="Arial Narrow, Arial">5,0</text><text transform="matrix(.96 0 0 1 3.88 319.52)" font-size="25" font-family="Arial Narrow, Arial">6,0</text><text transform="matrix(.96 0 0 1 4.48 261.43)" font-size="25" font-family="Arial Narrow, Arial">7,0</text><text transform="matrix(.96 0 0 1 4.94 204.64)" font-size="25" font-family="Arial Narrow, Arial">8,0</text><text transform="matrix(.96 0 0 1 4.69 148.49)" font-size="25" font-family="Arial Narrow, Arial">9,0</text><text transform="matrix(.96 0 0 1 19.32 652.64)" font-size="25" font-family="Arial Narrow, Arial">0</text><text transform="matrix(.96 0 0 1 68.87 103.83)" font-size="30" font-family="Arial Narrow, Arial" style="isolation:isolate">Z</text><text transform="matrix(.96 0 0 1 84.25 103.83)" font-size="18.11" font-family="Arial Narrow, Arial" style="isolation:isolate">1НГ</text><text transform="matrix(.96 0 0 1 68.87 135.92)" font-size="30" font-family="Arial Narrow, Arial" style="isolation:isolate">Z</text><text transform="matrix(.96 0 0 1 86.01 135.92)" font-size="18.11" font-family="Arial Narrow, Arial" style="isolation:isolate">2НГ</text><text transform="matrix(.96 0 0 1 68.87 168.03)" font-size="30" font-family="Arial Narrow, Arial" style="isolation:isolate">E</text><text transform="matrix(.96 0 0 1 87.23 168.03)" font-size="18.11" font-family="Arial Narrow, Arial" style="isolation:isolate">НГ</text><text transform="matrix(.96 0 0 1 0 103.83)" font-size="30" font-family="Arial Narrow, Arial" style="isolation:isolate">Z</text><text transform="matrix(.96 0 0 1 17.16 103.83)" font-size="18.11" font-family="Arial Narrow, Arial" style="isolation:isolate">0НГ</text><text transform="matrix(.96 0 0 1 413.04 631.56)" font-size="32.32" font-family="Arial Narrow, Arial" letter-spacing="-.02em" style="isolation:isolate">P</text><text transform="matrix(.96 0 0 1 429.46 632.25)" font-size="18.11" font-family="Arial Narrow, Arial" style="isolation:isolate">1</text><g style="isolation:isolate" font-size="32.32" font-family="Arial Narrow, Arial"><text transform="matrix(.96 0 0 1 440.39 631.56)" style="isolation:isolate">/</text><text transform="matrix(.96 0 0 1 447.47 631.56)" letter-spacing="-.02em" style="isolation:isolate">P</text></g><text transform="matrix(.96 0 0 1 465.95 633.67)" font-size="18.11" font-family="Arial Narrow, Arial" style="isolation:isolate">Ʃ</text></svg>