<svg xmlns="http://www.w3.org/2000/svg" width="472.27" height="741.16"><path fill="none" stroke="#000" stroke-linecap="round" stroke-linejoin="round" d="M107.05 611.11h6.76M168.4 611.11v5.94M222.99 611.11v5.94M277.59 611.11v5.94M332.18 611.11v5.94M386.77 611.11v5.94M168.4 654.2v5.94M222.99 654.2v5.94M277.59 654.2v5.94M332.18 654.2v5.94M386.77 654.2v5.94M168.4 700.31v5.94M222.99 700.31v5.94M277.59 700.31v5.94M332.18 700.31v5.94M386.77 700.31v5.94M113.81 700.31v5.94M113.81 654.2v5.94M107.05 558.38h6.76M107.05 505.65h6.76M107.05 452.92h6.76M107.05 400.19h6.76M107.05 347.45h6.76M107.05 294.72h6.76M107.05 241.99h6.76M107.05 189.26h6.76M43.11 611.11h6.77M43.11 558.38h6.77M43.11 505.65h6.77M43.11 452.92h6.77M43.11 400.19h6.77M43.11 347.45h6.77M43.11 294.72h6.77M49.88 611.11V83.79M113.81 654.2h357.96M113.81 700.31h357.96M113.81 611.11V83.79M113.81 611.11h357.96"/><path fill="none" stroke="#000" stroke-linecap="round" stroke-linejoin="round" stroke-width=".5" d="M178.72 396.21l11.22-11.22M180.86 471.81l12.92-4.39M324.73 424.69l-8.03-3.72M352 432.52l7.88 4.46"/><path fill="none" stroke="#000" stroke-linecap="round" stroke-linejoin="round" stroke-width=".25" d="M168.4 83.79v527.32M222.99 83.79v527.32M277.59 83.79v527.32M332.18 83.79v527.32M386.77 83.79v527.32M113.81 83.79h272.96M113.81 136.52h272.96M113.81 189.26h272.96M113.81 241.99h272.96M113.81 294.72h272.96M113.81 347.45h272.96M113.81 400.19h272.96M113.81 452.92h272.96M113.81 505.65h272.96M113.81 558.38h272.96"/><path d="M386.77 611.11a359.43 359.43 0 0 0-13-37c-7.45-17.95-16.8-35.24-26.73-52-9.25-15.57-18.8-31.32-30.41-45.13-10.71-12.59-22.47-24.98-35.71-34.84-12.85-9.5-27.84-16.46-42.38-23.35a387.38 387.38 0 0 0-56.31-21.58 401.53 401.53 0 0 0-43.36-10q-12.45-2.2-25-3.65" fill="none" stroke="#00f" stroke-linecap="round" stroke-linejoin="round" stroke-width="2"/><path d="M113.82 558.38a320.72 320.72 0 0 0 45.17-5.68 296.7 296.7 0 0 0 58.45-17.58c14.47-6.18 28.28-14.24 41.83-22.35 14.93-8.94 29.82-18.31 43.35-29.21 12.46-10 24.58-21 35-33.06 10.21-11.8 19.88-24.62 27.12-38.43 4.86-9.25 8.43-19.28 12.15-29.1q5.38-14.2 9.84-28.73" fill="none" stroke="#00f" stroke-linecap="round" stroke-linejoin="round" stroke-width="2"/><path d="M113.82 558.38a161.81 161.81 0 0 0 51.89-8.7c14.23-4.91 27.53-13.23 40.6-21 14.5-8.6 28.11-18.76 41.83-28.61 11.91-8.56 24.36-16.62 35.23-26.4a233.68 233.68 0 0 0 27.8-29.43 232.34 232.34 0 0 0 25.42-41.16c13.1-26.88 17.67-57.87 23.79-87.37 6.22-30 9.09-60.71 13-91.14q7.75-60 13.37-120.24" fill="none" stroke="#00f" stroke-linecap="round" stroke-linejoin="round" stroke-width="2"/><path d="M386.77 558.38a257.19 257.19 0 0 1-45.43-3.5c-16.44-2.76-32.58-8-48.48-13.13-18.85-6.13-38.47-12-55.44-21.74-22.79-13.06-43.56-32.22-60.24-52.58-14.87-18.15-25.53-40.18-36.5-61.22a627.4 627.4 0 0 1-26.87-58.75" fill="none" stroke="#00f" stroke-linecap="round" stroke-linejoin="round" stroke-width="2"/><text transform="matrix(.96 0 0 1 65.87 97.66)" font-size="27" font-family="Arial Narrow, Arial" style="isolation:isolate">Z</text><text transform="matrix(.96 0 0 1 80.25 97.66)" font-size="18.11" font-family="Arial Narrow, Arial" style="isolation:isolate">1НГ</text><text transform="matrix(.96 0 0 1 65.87 129.75)" font-size="27" font-family="Arial Narrow, Arial" style="isolation:isolate">Z</text><text transform="matrix(.96 0 0 1 82.01 129.75)" font-size="18.11" font-family="Arial Narrow, Arial" style="isolation:isolate">2НГ</text><text transform="matrix(.96 0 0 1 65.87 161.86)" font-size="27" font-family="Arial Narrow, Arial" style="isolation:isolate">E</text><text transform="matrix(.96 0 0 1 83.22 161.86)" font-size="18.11" font-family="Arial Narrow, Arial" style="isolation:isolate">НГ</text><text transform="matrix(.96 0 0 1 0 97.66)" font-size="27" font-family="Arial Narrow, Arial" style="isolation:isolate">Z</text><text transform="matrix(.96 0 0 1 16.16 97.66)" font-size="18.11" font-family="Arial Narrow, Arial" style="isolation:isolate">0НГ</text><text transform="matrix(.96 0 0 1 399.36 597.11)" font-size="32.32" font-family="Arial Narrow, Arial" letter-spacing="-.02em" style="isolation:isolate">P</text><text transform="matrix(.96 0 0 1 415.78 597.8)" font-size="18.11" font-family="Arial Narrow, Arial" style="isolation:isolate">1</text><g style="isolation:isolate" font-size="32.32" font-family="Arial Narrow, Arial"><text transform="matrix(.96 0 0 1 426.71 597.11)" style="isolation:isolate">/</text><text transform="matrix(.96 0 0 1 433.79 597.11)" letter-spacing="-.02em" style="isolation:isolate">P</text></g><text transform="matrix(.96 0 0 1 452.27 599.21)" font-size="18.11" font-family="Arial Narrow, Arial" style="isolation:isolate">Ʃ</text><text transform="matrix(.96 0 0 1 197.05 474.68)" font-size="28.02" font-family="Arial Narrow, Arial">Z</text><text transform="matrix(.96 0 0 1 214.52 474.68)" font-size="15.69" font-family="Arial Narrow, Arial">0НГ</text><text transform="matrix(.96 0 0 1 178.96 379.39)" font-size="28.02" font-family="Arial Narrow, Arial">E</text><text transform="matrix(.96 0 0 1 197.48 379.39)" font-size="15.69" font-family="Arial Narrow, Arial">НГ</text><text transform="matrix(.96 0 0 1 362.14 449.15)" font-size="28.02" font-family="Arial Narrow, Arial">Z</text><text transform="matrix(.96 0 0 1 378.08 449.15)" font-size="15.69" font-family="Arial Narrow, Arial">1НГ</text><text transform="matrix(.96 0 0 1 278.09 424.23)" font-size="28.02" font-family="Arial Narrow, Arial">Z</text><text transform="matrix(.96 0 0 1 295.57 424.23)" font-size="15.69" font-family="Arial Narrow, Arial">2НГ</text><text transform="matrix(.96 0 0 1 430.27 637.53)" font-size="28.02" font-family="Arial Narrow, Arial" letter-spacing="-.01em">P</text><text transform="matrix(.96 0 0 1 446.7 638.53)" font-size="15.69" font-family="Arial Narrow, Arial">П</text><text transform="matrix(.96 0 0 1 430.27 683.64)" font-size="28.02" font-family="Arial Narrow, Arial" letter-spacing="-.01em">P</text><text transform="matrix(.96 0 0 1 446.7 684.64)" font-size="15.69" font-family="Arial Narrow, Arial">АД</text><text transform="matrix(.96 0 0 1 430.27 729.75)" font-size="28.02" font-family="Arial Narrow, Arial" letter-spacing="-.01em">P</text><text transform="matrix(.96 0 0 1 446.7 730.75)" font-size="15.69" font-family="Arial Narrow, Arial">ЛН</text><text transform="matrix(.96 0 0 1 103.06 643.6)" font-size="24" font-family="Arial Narrow, Arial">0</text><text transform="matrix(.96 0 0 1 153.58 642.72)" font-size="24" font-family="Arial Narrow, Arial">0,2</text><text transform="matrix(.96 0 0 1 206.47 642.67)" font-size="24" font-family="Arial Narrow, Arial">0,4</text><text transform="matrix(.96 0 0 1 259.37 642.23)" font-size="24" font-family="Arial Narrow, Arial">0,6</text><text transform="matrix(.96 0 0 1 319.41 642.23)" font-size="24" font-family="Arial Narrow, Arial">0,8</text><text transform="matrix(.96 0 0 1 372.25 642.23)" font-size="24" font-family="Arial Narrow, Arial">1,0</text><text transform="matrix(.96 0 0 1 100.06 687.69)" font-size="24" font-family="Arial Narrow, Arial">0,8</text><text transform="matrix(.96 0 0 1 150.58 687.25)" font-size="24" font-family="Arial Narrow, Arial">0,64</text><text transform="matrix(.96 0 0 1 203.47 686.76)" font-size="24" font-family="Arial Narrow, Arial">0,48</text><text transform="matrix(.96 0 0 1 256.37 686.32)" font-size="24" font-family="Arial Narrow, Arial">0,32</text><text transform="matrix(.96 0 0 1 316.41 686.32)" font-size="24" font-family="Arial Narrow, Arial">0,16</text><text transform="matrix(.96 0 0 1 378.83 686.32)" font-size="24" font-family="Arial Narrow, Arial">0</text><text transform="matrix(.96 0 0 1 100.06 733.8)" font-size="24" font-family="Arial Narrow, Arial">0,2</text><text transform="matrix(.96 0 0 1 150.58 732.92)" font-size="24" font-family="Arial Narrow, Arial">0,18</text><text transform="matrix(.96 0 0 1 203.47 732.43)" font-size="24" font-family="Arial Narrow, Arial">0,12</text><text transform="matrix(.96 0 0 1 256.37 732.43)" font-size="24" font-family="Arial Narrow, Arial">0,08</text><text transform="matrix(.96 0 0 1 316.41 732.87)" font-size="24" font-family="Arial Narrow, Arial">0,04</text><text transform="matrix(.96 0 0 1 378.83 732.43)" font-size="24" font-family="Arial Narrow, Arial">0</text><text transform="matrix(.96 0 0 1 149.25 48.08)" font-size="32" font-family="Arial Narrow, Arial">АД+ЛН+П</text><text transform="matrix(.96 0 0 1 66.77 566.53)" font-size="24" font-family="Arial Narrow, Arial">0,2</text><text transform="matrix(.96 0 0 1 66.77 514.24)" font-size="24" font-family="Arial Narrow, Arial">0,4</text><text transform="matrix(.96 0 0 1 66.77 461.07)" font-size="24" font-family="Arial Narrow, Arial">0,6</text><text transform="matrix(.96 0 0 1 66.77 408.34)" font-size="24" font-family="Arial Narrow, Arial">0,8</text><text transform="matrix(.96 0 0 1 66.72 355.61)" font-size="24" font-family="Arial Narrow, Arial">1,0</text><text transform="matrix(.96 0 0 1 66.72 302.87)" font-size="24" font-family="Arial Narrow, Arial">1,2</text><text transform="matrix(.96 0 0 1 66.72 250.58)" font-size="24" font-family="Arial Narrow, Arial">1,4</text><text transform="matrix(.96 0 0 1 66.72 197.41)" font-size="24" font-family="Arial Narrow, Arial">1,6</text><text transform="matrix(.96 0 0 1 6.82 565.53)" font-size="24" font-family="Arial Narrow, Arial">1,0</text><text transform="matrix(.96 0 0 1 6.88 512.8)" font-size="24" font-family="Arial Narrow, Arial">2,0</text><text transform="matrix(.96 0 0 1 6.82 460.07)" font-size="24" font-family="Arial Narrow, Arial">3,0</text><text transform="matrix(.96 0 0 1 7.11 407.77)" font-size="24" font-family="Arial Narrow, Arial">4,0</text><text transform="matrix(.96 0 0 1 6.88 354.61)" font-size="24" font-family="Arial Narrow, Arial">5,0</text><text transform="matrix(.96 0 0 1 6.88 301.87)" font-size="24" font-family="Arial Narrow, Arial">6,0</text><text transform="matrix(.96 0 0 1 17.19 620.65)" font-size="24" font-family="Arial Narrow, Arial">0</text></svg>