<svg xmlns="http://www.w3.org/2000/svg" width="473.95" height="735.25"><path fill="none" stroke="#000" stroke-linecap="round" stroke-linejoin="round" d="M110.7 607.82h6.73M110.7 555.37h6.73M110.7 502.92h6.73M110.7 450.47h6.73M110.7 398.03h6.73M110.7 345.58h6.73M110.7 293.13h6.73M47.11 607.82h6.73M47.11 555.37h6.73M47.11 502.92h6.73M47.11 450.47h6.73M47.11 398.03h6.73M47.11 345.58h6.73M47.11 293.13h6.73M110.7 240.68h6.73M110.7 188.23h6.73M47.11 240.68h6.73M47.11 188.23h6.73M47.11 135.79h6.73M171.73 607.82v5.9M226.03 607.82v5.9M280.32 607.82v5.9M334.62 607.82v5.9M388.91 607.82v5.9M171.73 650.67v5.9M226.03 650.67v5.9M280.32 650.67v5.9M334.62 650.67v5.9M388.91 650.67v5.9M171.73 696.53v5.91M226.03 696.53v5.91M280.32 696.53v5.91M334.62 696.53v5.91M388.91 696.53v5.91M117.43 650.67v5.9M117.43 696.53v5.91M53.84 607.82V83.34M117.43 650.67h356.02M117.43 696.53h356.02M117.43 607.82V83.34M117.43 607.82h356.02"/><path fill="none" stroke="#000" stroke-linecap="round" stroke-linejoin="round" stroke-width=".5" d="M200.56 409.75l-12.62.22M193.23 311.21l8.98 8.09M180.64 472.18l-15.23 9.72M322.97 364.01l17.63 3.26"/><path fill="none" stroke="#000" stroke-linecap="round" stroke-linejoin="round" stroke-width=".25" d="M171.73 83.34v524.48M226.03 83.34v524.48M280.32 83.34v524.48M334.62 83.34v524.48M388.91 83.34v524.48M117.43 83.34h271.48M117.43 135.79h271.48M117.43 188.23h271.48M117.43 240.68h271.48M117.43 293.13h271.48M117.43 345.58h271.48M117.43 398.03h271.48M117.43 450.47h271.48M117.43 502.92h271.48M117.43 555.37h271.48"/><path d="M117.43 551.81q21.6-6.12 42.65-13.73c17.86-6.46 36.2-12.61 52.69-21.78 17.89-9.94 35.39-22.13 49.88-36.53a209.77 209.77 0 0 0 30-37.7c12.27-19.77 19.19-43.08 26.46-65.34 10.27-31.44 15.63-64.55 21.54-97.19 4.35-24 7.89-48.18 11-72.36q7.94-61.64 11.1-123.84" fill="none" stroke="#00f" stroke-linecap="round" stroke-linejoin="round" stroke-width="2"/><path d="M388.91 566.57a186.92 186.92 0 0 1-41.56-7.18c-21.86-6.42-42.93-18.31-61.47-31.55s-34.92-30.69-50-48.08a402.1 402.1 0 0 1-47.54-69C175.03 386.55 165.67 360 155.61 334c-6.27-16.18-12.86-32.35-17.8-48.94-7.34-24.66-12-50.33-15.42-75.85a569.37 569.37 0 0 1-5-77.27" fill="none" stroke="#00f" stroke-linecap="round" stroke-linejoin="round" stroke-width="2"/><path d="M388.91 566.57a228.48 228.48 0 0 1-44-6.53c-19-4.75-36.86-13.84-54.89-21.68s-36.14-15.4-52.91-25.21c-24.63-14.42-48.28-32.11-68.3-52.38a335.38 335.38 0 0 1-40.28-50.12q-5.81-8.75-11.09-17.85" fill="none" stroke="#00f" stroke-linecap="round" stroke-linejoin="round" stroke-width="2"/><path d="M117.43 607.82a670 670 0 0 1 9.25-73.82c3.94-21.58 9.62-42.88 15-64.18 7.62-30.16 15.07-60.49 25.12-89.89 8.52-24.92 15.77-51.1 29.18-73.55a245.93 245.93 0 0 1 78.69-81.21c16.76-10.76 36.13-17.47 54.24-26.13q30-14.34 60-28.5" fill="none" stroke="#00f" stroke-linecap="round" stroke-linejoin="round" stroke-width="2"/><text transform="matrix(.96 0 0 1 337.88 375.05)" font-size="27.87" font-family="Arial Narrow, Arial">Z</text><text transform="matrix(.96 0 0 1 355.26 375.05)" font-size="15.6" font-family="Arial Narrow, Arial">0НГ</text><text transform="matrix(.96 0 0 1 200.85 336.99)" font-size="27.87" font-family="Arial Narrow, Arial">E</text><text transform="matrix(.96 0 0 1 219.28 336.99)" font-size="15.6" font-family="Arial Narrow, Arial">НГ</text><text transform="matrix(.96 0 0 1 196.09 418.49)" font-size="27.87" font-family="Arial Narrow, Arial">Z</text><text transform="matrix(.96 0 0 1 211.95 418.49)" font-size="15.6" font-family="Arial Narrow, Arial">1НГ</text><text transform="matrix(.96 0 0 1 149.89 497.29)" font-size="27.87" font-family="Arial Narrow, Arial">Z</text><text transform="matrix(.96 0 0 1 167.26 497.29)" font-size="15.6" font-family="Arial Narrow, Arial">2НГ</text><text transform="matrix(.96 0 0 1 435.06 634.09)" font-size="27.87" font-family="Arial Narrow, Arial" letter-spacing="-.01em">P</text><text transform="matrix(.96 0 0 1 451.39 634.09)" font-size="15.6" font-family="Arial Narrow, Arial">АД</text><text transform="matrix(.96 0 0 1 105.75 639.17)" font-size="24" font-family="Arial Narrow, Arial">0</text><text transform="matrix(.96 0 0 1 156 638.3)" font-size="24" font-family="Arial Narrow, Arial">0,2</text><text transform="matrix(.96 0 0 1 208.61 638.24)" font-size="24" font-family="Arial Narrow, Arial">0,4</text><text transform="matrix(.96 0 0 1 261.22 637.81)" font-size="24" font-family="Arial Narrow, Arial">0,6</text><text transform="matrix(.96 0 0 1 320.93 637.81)" font-size="24" font-family="Arial Narrow, Arial">0,8</text><text transform="matrix(.96 0 0 1 373.49 637.81)" font-size="24" font-family="Arial Narrow, Arial">1,0</text><text transform="matrix(.96 0 0 1 105.75 682.02)" font-size="24" font-family="Arial Narrow, Arial">0,8</text><text transform="matrix(.96 0 0 1 156 681.59)" font-size="24" font-family="Arial Narrow, Arial">0,64</text><text transform="matrix(.96 0 0 1 208.61 681.1)" font-size="24" font-family="Arial Narrow, Arial">0,48</text><text transform="matrix(.96 0 0 1 261.22 680.66)" font-size="24" font-family="Arial Narrow, Arial">0,32</text><text transform="matrix(.96 0 0 1 320.93 680.66)" font-size="24" font-family="Arial Narrow, Arial">0,16</text><text transform="matrix(.96 0 0 1 383.02 680.66)" font-size="24" font-family="Arial Narrow, Arial">0</text><text transform="matrix(.96 0 0 1 105.75 727.89)" font-size="24" font-family="Arial Narrow, Arial">0,2</text><text transform="matrix(.96 0 0 1 156 727.01)" font-size="24" font-family="Arial Narrow, Arial">0,18</text><text transform="matrix(.96 0 0 1 208.61 726.53)" font-size="24" font-family="Arial Narrow, Arial">0,12</text><text transform="matrix(.96 0 0 1 261.22 726.53)" font-size="24" font-family="Arial Narrow, Arial">0,08</text><text transform="matrix(.96 0 0 1 320.93 726.96)" font-size="24" font-family="Arial Narrow, Arial">0,04</text><text transform="matrix(.96 0 0 1 383.02 726.53)" font-size="24" font-family="Arial Narrow, Arial">0</text><text transform="matrix(.96 0 0 1 152.68 47.82)" font-size="32" font-family="Arial Narrow, Arial">АД+ЛН+ЭУ</text><text transform="matrix(.96 0 0 1 73.59 561.49)" font-size="24" font-family="Arial Narrow, Arial">0,2</text><text transform="matrix(.96 0 0 1 73.59 509.04)" font-size="24" font-family="Arial Narrow, Arial">0,3</text><text transform="matrix(.96 0 0 1 73.59 457.03)" font-size="24" font-family="Arial Narrow, Arial">0,4</text><text transform="matrix(.96 0 0 1 73.59 404.15)" font-size="24" font-family="Arial Narrow, Arial">0,5</text><text transform="matrix(.96 0 0 1 73.59 351.7)" font-size="24" font-family="Arial Narrow, Arial">0,6</text><text transform="matrix(.96 0 0 1 73.59 299.25)" font-size="24" font-family="Arial Narrow, Arial">0,7</text><text transform="matrix(.96 0 0 1 73.59 246.8)" font-size="24" font-family="Arial Narrow, Arial">0,8</text><text transform="matrix(.96 0 0 1 73.59 194.36)" font-size="24" font-family="Arial Narrow, Arial">0,9</text><text transform="matrix(.96 0 0 1 12.98 561.49)" font-size="24" font-family="Arial Narrow, Arial">1,0</text><text transform="matrix(.96 0 0 1 13.04 509.04)" font-size="24" font-family="Arial Narrow, Arial">2,0</text><text transform="matrix(.96 0 0 1 12.98 456.59)" font-size="24" font-family="Arial Narrow, Arial">3,0</text><text transform="matrix(.96 0 0 1 13.27 404.58)" font-size="24" font-family="Arial Narrow, Arial">4,0</text><text transform="matrix(.96 0 0 1 13.04 351.7)" font-size="24" font-family="Arial Narrow, Arial">5,0</text><text transform="matrix(.96 0 0 1 13.04 299.25)" font-size="24" font-family="Arial Narrow, Arial">6,0</text><text transform="matrix(.96 0 0 1 12.83 246.8)" font-size="24" font-family="Arial Narrow, Arial">7,0</text><text transform="matrix(.96 0 0 1 13.04 194.36)" font-size="24" font-family="Arial Narrow, Arial">8,0</text><text transform="matrix(.96 0 0 1 13.06 141.93)" font-size="24" font-family="Arial Narrow, Arial">9,0</text><text transform="matrix(.96 0 0 1 23.3 616.31)" font-size="24" font-family="Arial Narrow, Arial">0</text><text transform="matrix(.96 0 0 1 435.06 679.95)" font-size="27.87" font-family="Arial Narrow, Arial" letter-spacing="-.01em">P</text><text transform="matrix(.96 0 0 1 451.39 679.95)" font-size="15.6" font-family="Arial Narrow, Arial">ЭУ</text><text transform="matrix(.96 0 0 1 435.06 725.81)" font-size="27.87" font-family="Arial Narrow, Arial" letter-spacing="-.01em">P</text><text transform="matrix(.96 0 0 1 451.39 725.81)" font-size="15.6" font-family="Arial Narrow, Arial">ЛН</text><text transform="matrix(.96 0 0 1 68.87 97.42)" font-size="30" font-family="Arial Narrow, Arial" style="isolation:isolate">Z</text><text transform="matrix(.96 0 0 1 83.25 97.42)" font-size="18.11" font-family="Arial Narrow, Arial" style="isolation:isolate">1НГ</text><text transform="matrix(.96 0 0 1 68.87 129.52)" font-size="30" font-family="Arial Narrow, Arial" style="isolation:isolate">Z</text><text transform="matrix(.96 0 0 1 85.01 129.52)" font-size="18.11" font-family="Arial Narrow, Arial" style="isolation:isolate">2НГ</text><text transform="matrix(.96 0 0 1 68.87 161.62)" font-size="30" font-family="Arial Narrow, Arial" style="isolation:isolate">E</text><text transform="matrix(.96 0 0 1 86.23 161.62)" font-size="18.11" font-family="Arial Narrow, Arial" style="isolation:isolate">НГ</text><text transform="matrix(.96 0 0 1 0 97.42)" font-size="30" font-family="Arial Narrow, Arial" style="isolation:isolate">Z</text><text transform="matrix(.96 0 0 1 16.16 97.42)" font-size="18.11" font-family="Arial Narrow, Arial" style="isolation:isolate">0НГ</text><text transform="matrix(.96 0 0 1 399.35 595.83)" font-size="32.32" font-family="Arial Narrow, Arial" letter-spacing="-.02em" style="isolation:isolate">P</text><text transform="matrix(.96 0 0 1 415.76 596.52)" font-size="18.11" font-family="Arial Narrow, Arial" style="isolation:isolate">1</text><g style="isolation:isolate" font-size="32.32" font-family="Arial Narrow, Arial"><text transform="matrix(.96 0 0 1 426.69 595.83)" style="isolation:isolate">/</text><text transform="matrix(.96 0 0 1 433.77 595.83)" letter-spacing="-.02em" style="isolation:isolate">P</text></g><text transform="matrix(.96 0 0 1 452.25 597.93)" font-size="18.11" font-family="Arial Narrow, Arial" style="isolation:isolate">Ʃ</text></svg>