<svg xmlns="http://www.w3.org/2000/svg" width="150" height="97.37"><path d="M0 93.34h65v1.5H0z"/><path d="M38 0h-2v94.34h2V0z"/><circle cx="37" cy="94.34" r="2.39"/><path d="M37 92.59a1.78 1.78 0 1 1-1.78 1.78A1.78 1.78 0 0 1 37 92.59m0-1.22a3 3 0 1 0 3 3 3 3 0 0 0-3-3z"/><path fill="none" stroke="#000" stroke-linecap="round" stroke-linejoin="round" stroke-width="1.8" d="M44.83 75.33l-7.86-13.61M36.97 61.72l-7.85 13.61M29.12 75.33h15.71M44.83 18.45l-7.86 13.61M36.97 32.06l-7.85-13.61M29.12 18.45h15.71"/></svg>