<svg xmlns="http://www.w3.org/2000/svg" width="47.27" height="103.91"><path fill="none" stroke="#000" stroke-linecap="round" stroke-linejoin="round" stroke-width="1.7" d="M27.46 36.59h18.82M46.28 36.59V55.4M46.28 55.4H27.46M27.46 55.4V36.59M29.46 45.99h3.53M40.75 45.99h3.53M42.33 44.58a5.64 5.64 0 0 0-10.93 0M31.41 47.41a5.64 5.64 0 0 0 10.93 0"/><text transform="matrix(.96 0 0 1 30.81 67.45)" font-size="10.67" font-family="Arial Narrow, Arial">ЭУ</text><text transform="matrix(.96 0 0 1 4.37 67.17)" font-size="10.67" font-family="Arial Narrow, Arial">ЛН</text><path d="M1.1 46.23a9.44 9.44 0 1 1 9.44 9.44 9.44 9.44 0 0 1-9.44-9.44zM3.86 52.91l13.35-13.35M17.21 52.91L3.86 39.56M14.49 69.59h18.88v18.88H14.49z" fill="none" stroke="#000" stroke-linecap="round" stroke-linejoin="round" stroke-width="1.7"/><path fill="none" stroke="#000" stroke-linecap="round" stroke-linejoin="round" stroke-width="1.7" d="M23.93 83.4l-5.04-8.74h10.09l-5.05 8.74zM23.93 86.02V72.04M18.89 83.4h10.09"/><text transform="matrix(.96 0 0 1 20.56 100.45)" font-size="10.67" font-family="Arial Narrow, Arial">П</text><circle cx="37" cy="20.74" r="3"/><circle cx="23.81" cy="20.74" r="3"/><circle cx="10.62" cy="20.74" r="3"/><path d="M37.93 0h-2v36.59h2zM24.93 20.89h-2v49.18h2zM11.62 20.89h-2v15.7h2z"/><path d="M0 19.92v2h47.27v-2z"/></svg>