<svg xmlns="http://www.w3.org/2000/svg" width="64.99" height="97.37"><path d="M65 93.37H0v1.5h65z"/><circle cx="37" cy="94.37" r="3"/><path d="M38 76.18h-2v18.19h2zm0-41.55h-2v13.46h2z"/><path d="M37 57.27a5 5 0 0 0 0-9.9m0 19.8a5 5 0 0 0 0-9.9M37 77a5 5 0 0 0 0-9.9" fill="none" stroke="#000" stroke-linecap="round" stroke-linejoin="round" stroke-width="1.7"/><path d="M20 17.9a17 17 0 1 1 17 17 17 17 0 0 1-17-17z" fill="none" stroke="#000" stroke-linecap="round" stroke-linejoin="round" stroke-width="1.8"/><path d="M37 31.7l2.55-14.17L37 19l-2.55-1.42z"/><path d="M37 19V4.09" fill="none" stroke="#000" stroke-linecap="round" stroke-linejoin="round" stroke-width="1.8"/></svg>