<svg xmlns="http://www.w3.org/2000/svg" width="64.99" height="138.37"><path d="M36 0h1.99v21.09H36zM36 47.64h1.99V61.1H36zM36 90.18h1.99v13.46H36z"/><path d="M37 90.9a5 5 0 0 0 0-9.9m0 0a5 5 0 0 0 0-9.9m0 .07a5 5 0 0 0 0-9.9" fill="none" stroke="#000" stroke-linecap="round" stroke-linejoin="round" stroke-width="1.7"/><path d="M37 103.37a17 17 0 1 1-17 17 17 17 0 0 1 17-17z" fill="none" stroke="#000" stroke-linecap="round" stroke-linejoin="round" stroke-width="1.8"/><path d="M34.45 120.74l2.55-1.42 2.55 1.42L37 106.57z"/><path d="M37 134.18v-14.86" fill="none" stroke="#000" stroke-linecap="round" stroke-linejoin="round" stroke-width="1.8"/><path d="M31 20.27h12v29H31z"/><path fill="#fff" d="M41 47.27h-8v-25h8v25"/></svg>