<svg xmlns="http://www.w3.org/2000/svg" width="150" height="97.75"><path d="M0 93.75h65v1.5H0z"/><path d="M65 93.75H0v1.5h65v-1.5z"/><circle cx="37" cy="94.75" r="2.39"/><path d="M37 93a1.78 1.78 0 1 1-1.78 1.78A1.78 1.78 0 0 1 37 93m0-1.22a3 3 0 1 0 3 3 3 3 0 0 0-3-3z"/><path d="M36 80h2v14h-2z"/><path d="M38 80h-2v14h2V80zM36 0h2v15.78h-2z"/><path d="M38 0h-2v15.78h2V0zM41 54v25h-8V54h8m2-2H31v29h12V52z"/><path d="M37 24.9a4.95 4.95 0 1 0 0-9.9M37 34.8a4.95 4.95 0 0 0 0-9.9M37 44.7a4.95 4.95 0 1 0 0-9.9" fill="none" stroke="#000" stroke-linecap="round" stroke-linejoin="round" stroke-width="1.7"/><path d="M36 43.87h2v9.91h-2z"/><path d="M38 43.88h-2v9.9h2v-9.9z"/></svg>