<svg xmlns="http://www.w3.org/2000/svg" width="64.99" height="97.4"><path d="M0 93.37h64.99v1.5H0z"/><path d="M64.99 93.37H0v1.5h64.99v-1.5z"/><path d="M37.99 76.18H36v18.19h1.99V76.18zM37.99 34.63H36v13.46h1.99V34.63z"/><circle cx="37" cy="94.37" r="2.39"/><path d="M37 92.62a1.78 1.78 0 1 1-1.78 1.78A1.78 1.78 0 0 1 37 92.62m0-1.22a3 3 0 1 0 3 3 3 3 0 0 0-3-3z"/><path d="M37 57.27a5 5 0 0 0 0-9.9M37 67.17a5 5 0 0 0 0-9.9M37 77a5 5 0 0 0 0-9.9" fill="none" stroke="#000" stroke-linecap="round" stroke-linejoin="round" stroke-width="1.7"/><path d="M20 17.9a17 17 0 1 1 17 17 17 17 0 0 1-17-17z" fill="none" stroke="#000" stroke-linecap="round" stroke-linejoin="round" stroke-width="1.8"/><path d="M37 31.7l2.55-14.17L37 18.95l-2.55-1.42L37 31.7z"/><path fill="none" stroke="#000" stroke-linecap="round" stroke-linejoin="round" stroke-width="1.8" d="M37 18.95V4.09"/></svg>