<svg xmlns="http://www.w3.org/2000/svg" width="150" height="97.75"><path d="M0 93.75h65v1.5H0z"/><path d="M65 93.75H0v1.5h65v-1.5z"/><path d="M36 66.45h2v28.3h-2z"/><path d="M38 66.45h-2v28.3h2v-28.3zM36 0h2v36.75h-2z"/><path d="M38 0h-2v36.75h2V0z"/><circle cx="37" cy="94.75" r="2.39"/><path d="M37 93a1.78 1.78 0 1 1-1.78 1.78A1.78 1.78 0 0 1 37 93m0-1.22a3 3 0 1 0 3 3 3 3 0 0 0-3-3z"/><path d="M37 46.65a4.95 4.95 0 0 0 0-9.9M37 56.55a4.95 4.95 0 0 0 0-9.9M37 66.45a4.95 4.95 0 0 0 0-9.9" fill="none" stroke="#000" stroke-linecap="round" stroke-linejoin="round" stroke-width="1.7"/></svg>