<svg xmlns="http://www.w3.org/2000/svg" width="150" height="97.51"><path d="M0 93.48h65v1.5H0z"/><path d="M65 93.48H0v1.5h65v-1.5z"/><path d="M38 34.45h-2v60.03h2V34.45z"/><circle cx="37" cy="94.48" r="2.39"/><path d="M37 92.73a1.78 1.78 0 1 1-1.78 1.78A1.78 1.78 0 0 1 37 92.73m0-1.22a3 3 0 1 0 3 3 3 3 0 0 0-3-3z"/><path d="M20 17.91a17 17 0 1 1 17 17 17 17 0 0 1-17-17zM37 17.91a4.09 4.09 0 0 0 8-1.18M37 17.91a4.09 4.09 0 0 0-8 1.19" fill="none" stroke="#000" stroke-linecap="round" stroke-linejoin="round" stroke-width="1.8"/></svg>