<svg xmlns="http://www.w3.org/2000/svg" width="150" height="97.75"><path d="M0 93.75h65v1.5H0z"/><path d="M65 93.75H0v1.5h65v-1.5z"/><circle cx="37" cy="94.75" r="2.39"/><path d="M37 93a1.78 1.78 0 1 1-1.78 1.78A1.78 1.78 0 0 1 37 93m0-1.22a3 3 0 1 0 3 3 3 3 0 0 0-3-3zM36.5 21A12.5 12.5 0 1 1 24 33.5 12.51 12.51 0 0 1 36.5 21m0-2A14.5 14.5 0 1 0 51 33.5 14.5 14.5 0 0 0 36.5 19z"/><path d="M36.5 40A12.5 12.5 0 1 1 24 52.5 12.51 12.51 0 0 1 36.5 40m0-2A14.5 14.5 0 1 0 51 52.5 14.5 14.5 0 0 0 36.5 38z"/><path d="M36 66h2v28h-2z"/><path d="M38 66h-2v28h2V66zM36 0h2v20h-2z"/><path d="M38 0h-2v20h2V0z"/></svg>