<svg xmlns="http://www.w3.org/2000/svg" width="150" height="97.37"><path d="M0 93.34h65v1.5H0z"/><path d="M38 0h-2v94.34h2V0z"/><circle cx="37" cy="94.34" r="2.39"/><path d="M37 92.59a1.78 1.78 0 1 1-1.78 1.78A1.78 1.78 0 0 1 37 92.59m0-1.22a3 3 0 1 0 3 3 3 3 0 0 0-3-3z"/><path d="M36.37 37a5.44 5.44 0 1 0 0 10.89M36.37 47.88a5.44 5.44 0 0 0 0 10.89M36.37 36.99h12.7M36.37 58.76h12.7M36.37 47.88h1.82" fill="none" stroke="#000" stroke-linecap="round" stroke-linejoin="round" stroke-width="1.8"/><circle cx="47" cy="58.97" r="2.39"/><path d="M47 57.22A1.78 1.78 0 1 1 45.22 59 1.78 1.78 0 0 1 47 57.22M47 56a3 3 0 1 0 3 3 3 3 0 0 0-3-3z"/><circle cx="47" cy="36.97" r="2.39"/><path d="M47 35.22A1.78 1.78 0 1 1 45.22 37 1.78 1.78 0 0 1 47 35.22M47 34a3 3 0 1 0 3 3 3 3 0 0 0-3-3z"/><circle cx="37" cy="29.97" r="2.39"/><path d="M37 28.22A1.78 1.78 0 1 1 35.22 30 1.78 1.78 0 0 1 37 28.22M37 27a3 3 0 1 0 3 3 3 3 0 0 0-3-3z"/><circle cx="37" cy="65.97" r="2.39"/><path d="M37 64.22A1.78 1.78 0 1 1 35.22 66 1.78 1.78 0 0 1 37 64.22M37 63a3 3 0 1 0 3 3 3 3 0 0 0-3-3z"/></svg>